<svg width="500" height="300" viewBox="0 0 500 300" fill="none" xmlns="http://www.w3.org/2000/svg">
<path d="M500 278.958H0V279.924H500V278.958Z" fill="#3F3D56"/>
<path d="M283.508 79.3003H312.105V37.4454H283.508V79.3003Z" fill="#2F2E41"/>
<path d="M306.579 56.7527C306.579 56.7527 305.503 77.4167 315.017 78.2641C321.673 78.857 302.035 97.1681 302.035 97.1681L285.159 73.7011C285.159 73.7011 297.809 75.0022 289.703 60.6638L306.579 56.7527Z" fill="#FFB8B8"/>
<path opacity="0.1" d="M285.158 73.7033L290.491 81.1208L302.036 97.1679C302.036 97.1679 311.677 88.1761 315.158 82.5937C316.466 80.493 316.909 78.8753 315.639 78.3972C315.634 78.3934 315.627 78.3916 315.62 78.3924C315.438 78.3238 315.247 78.2815 315.053 78.2668C315.041 78.2642 315.03 78.2626 315.019 78.262C314.464 78.2152 313.919 78.0917 313.398 77.895C305.628 74.9782 306.58 56.7532 306.58 56.7532L289.702 60.6647C295.112 70.2312 291.279 72.8389 288.13 73.5101C287.439 73.6549 286.735 73.7293 286.028 73.7323C285.495 73.7371 285.158 73.7033 285.158 73.7033Z" fill="black"/>
<path d="M280.197 39.7813C283.287 48.9687 288.025 57.3398 297.681 57.3398C307.337 57.3398 314.621 49.4632 315.165 39.7813C315.86 27.4098 307.56 22.1715 297.681 22.2228C286.011 22.2833 276.531 28.8781 280.197 39.7813Z" fill="#2F2E41"/>
<path d="M321.508 189.081L316.964 221.022C316.964 221.022 320.859 240.578 318.911 254.267L316.964 268.608H307.877L305.281 253.615C305.281 253.615 302.684 237.97 302.684 230.8C302.684 230.8 295.544 198.207 300.088 191.688L321.508 189.081Z" fill="#FFB8B8"/>
<path d="M266.336 187.125L270.879 221.022C270.879 221.022 266.985 240.578 268.932 254.267L270.879 268.608H279.966L282.563 253.615C282.563 253.615 285.159 237.97 285.159 230.8C285.159 230.8 292.299 196.251 287.755 189.732L266.336 187.125Z" fill="#FFB8B8"/>
<path d="M275.423 266.652C275.423 266.652 270.23 264.697 269.581 267.304C268.932 269.911 267.634 283.601 267.634 283.601C267.634 283.601 263.739 289.467 261.143 290.119C258.547 290.771 252.705 299.245 259.845 299.897C266.985 300.549 274.125 297.941 274.125 296.638C274.125 295.334 276.721 294.682 278.019 294.682C279.317 294.682 283.861 292.727 283.212 290.771C282.563 288.815 280.616 266 280.616 266L275.423 266.652Z" fill="#2F2E41"/>
<path d="M312.42 266.652C312.42 266.652 317.613 264.697 318.262 267.304C318.911 269.911 320.209 283.601 320.209 283.601C320.209 283.601 324.104 289.467 326.7 290.119C329.297 290.771 335.138 299.245 327.998 299.897C320.859 300.549 313.719 297.941 313.719 296.638C313.719 295.334 311.122 294.682 309.824 294.682C308.526 294.682 303.982 292.727 304.632 290.771C305.281 288.815 307.228 266 307.228 266L312.42 266.652Z" fill="#2F2E41"/>
<path d="M296.843 64.4023C304.276 64.4023 310.301 58.3508 310.301 50.8859C310.301 43.421 304.276 37.3695 296.843 37.3695C289.41 37.3695 283.384 43.421 283.384 50.8859C283.384 58.3508 289.41 64.4023 296.843 64.4023Z" fill="#FFB8B8"/>
<path d="M246.214 125.196C246.214 125.196 273.473 136.931 276.07 124.544C277.667 116.803 278.751 108.964 279.316 101.079C279.318 101.077 279.322 101.075 279.325 101.075C279.705 100.843 293.135 92.5656 290.491 81.1207C289.875 78.6416 288.719 76.3307 287.106 74.3551C287.106 74.3551 286.706 74.0944 286.028 73.7322C285.234 73.3059 284.413 72.9301 283.571 72.607C278.989 70.854 271.367 69.8641 269.583 81.5215C266.987 98.4716 266.987 116.726 266.987 116.726C266.987 116.726 259.197 121.289 248.811 116.726C238.424 112.162 228.038 114.77 227.389 120.637C226.74 126.5 246.214 125.196 246.214 125.196Z" fill="#FFB8B8"/>
<path d="M315.019 78.262L315.158 82.5936L316.707 131.425L316.966 139.538L339.682 164.964C339.682 164.964 344.226 178.649 353.963 180.605C363.7 182.561 347.471 161.704 347.471 161.704L325.4 129.108L325.367 128.011C325.118 118.878 325.876 109.746 327.627 100.78C328.275 97.4428 328.399 94.0245 327.997 90.6486C327.093 83.376 321.135 80.2226 317.615 78.9815C316.968 78.7485 316.309 78.5534 315.639 78.3972C315.633 78.3934 315.627 78.3917 315.62 78.3924C315.327 78.3199 315.129 78.2813 315.053 78.2668C315.041 78.2642 315.03 78.2626 315.019 78.262Z" fill="#FFB8B8"/>
<path d="M278.667 125.196V127.803C288.13 139.417 309.076 133.932 316.707 131.425C318.5 130.836 319.558 130.411 319.558 130.411C319.17 129.595 318.949 128.708 318.909 127.803V121.941C318.909 119.985 318.265 121.289 317.615 120.637C316.966 119.985 319.558 116.074 319.558 116.074C326.05 112.162 322.155 101.079 322.155 101.079L317.615 91.3004V78.9813C316.969 78.7483 316.309 78.5532 315.639 78.397C315.634 78.3932 315.627 78.3915 315.62 78.3922C315.438 78.3236 315.247 78.2814 315.053 78.2666C315.041 78.2641 315.03 78.2625 315.019 78.2618C314.464 78.215 313.919 78.0915 313.398 77.8948C312.182 80.4156 309.537 83.7332 303.983 84.1292C297.333 84.6072 291.029 77.4071 288.13 73.51C287.439 73.6547 286.735 73.7292 286.028 73.7321C285.234 73.3058 284.413 72.93 283.571 72.6069L286.456 84.7811C289.01 91.1893 279.648 100.741 279.325 101.074C279.322 101.075 279.318 101.077 279.316 101.079V108.25L279.965 116.074L280.614 118.029L279.316 119.985L279.965 121.941L279.316 123.245C278.667 124.544 278.667 123.897 278.667 125.196Z" fill="#D0CDE1"/>
<path d="M318.262 129.761L320.209 129.109C320.209 129.109 343.576 187.777 327.998 190.384C312.42 192.992 300.737 197.555 298.141 192.992C295.544 188.429 296.843 172.132 296.843 172.132L294.246 171.48C294.246 171.48 298.79 195.599 289.703 193.644C280.616 191.688 255.301 188.429 255.301 185.821C255.301 183.214 278.668 126.9 278.668 126.9C278.668 126.9 288.405 133.02 318.262 129.761Z" fill="#2F2E41"/>
<path d="M297.681 25.9192C301.493 25.9192 304.582 22.8161 304.582 18.9882C304.582 15.1604 301.493 12.0573 297.681 12.0573C293.869 12.0573 290.78 15.1604 290.78 18.9882C290.78 22.8161 293.869 25.9192 297.681 25.9192Z" fill="#2F2E41"/>
<path d="M305.963 15.2917C305.963 13.5736 305.327 11.9167 304.179 10.6425C303.032 9.36829 301.454 8.56759 299.751 8.39571C299.979 8.37307 300.209 8.36072 300.442 8.36072C301.348 8.36072 302.245 8.54 303.083 8.88831C303.92 9.23663 304.681 9.74715 305.322 10.3908C305.963 11.0344 306.471 11.7984 306.818 12.6393C307.165 13.4802 307.343 14.3815 307.343 15.2917C307.343 16.2019 307.165 17.1032 306.818 17.9441C306.471 18.785 305.963 19.5491 305.322 20.1927C304.681 20.8363 303.92 21.3468 303.083 21.6951C302.245 22.0434 301.348 22.2227 300.442 22.2227C300.209 22.2227 299.979 22.2103 299.751 22.1877C301.454 22.0158 303.032 21.2151 304.179 19.9409C305.327 18.6667 305.963 17.0099 305.963 15.2917Z" fill="#2F2E41"/>
<path d="M303.238 33.4814C303.238 33.4814 303.383 32.6758 309.019 34.7984C314.655 36.9209 318.033 52.5846 315.215 61.7824C314.079 65.4891 315.003 68.1616 316.511 70.0315C322.169 77.0485 319.942 87.5879 311.7 91.1963C311.467 91.2982 311.23 91.3989 310.988 91.4984L307.465 93.6209C307.465 93.6209 311.956 87.6871 309.709 80.0967C307.757 73.6293 307.516 66.7631 309.009 60.1738C309.267 59.0622 309.56 57.9164 309.893 56.7471C312.711 46.8417 311.34 47.9857 301.477 38.0803C301.477 38.0803 295.841 42.3255 290.91 44.448C285.978 46.5706 281.751 48.6932 285.274 55.7684C288.796 62.8436 297.25 69.2114 291.614 78.4092C285.978 87.607 285.274 84.0694 285.978 87.607L286.683 91.1446L282.456 86.8995L285.274 92.5597C285.274 92.5597 276.115 92.5597 273.297 85.4844L271.888 86.8995C271.888 86.8995 266.252 76.9941 276.819 67.7963C276.819 67.7963 280.342 65.6738 275.41 58.5985C270.479 51.5233 274.266 36.3115 280.607 33.4814C286.948 30.6514 303.238 33.4814 303.238 33.4814Z" fill="#2F2E41"/>
<path d="M234.078 64.594V96.3115C234.078 96.6045 233.961 96.8853 233.755 97.0925C233.549 97.2998 233.269 97.4165 232.977 97.4173H232.194V262.645C232.193 267.217 230.385 271.602 227.165 274.835C223.946 278.068 219.58 279.884 215.027 279.885H112.227C109.973 279.884 107.741 279.438 105.658 278.572C103.576 277.705 101.684 276.435 100.09 274.834C98.4968 273.234 97.2328 271.333 96.3705 269.242C95.5083 267.15 95.0647 264.908 95.0651 262.645V103.212H94.4977C94.2918 103.213 94.0942 103.131 93.9482 102.985C93.8022 102.839 93.7197 102.641 93.7187 102.435V84.3836C93.7187 84.2809 93.7388 84.1791 93.778 84.0842C93.8171 83.9893 93.8745 83.903 93.9468 83.8304C94.0192 83.7577 94.1051 83.7001 94.1996 83.6608C94.2941 83.6215 94.3954 83.6012 94.4977 83.6013H95.0651V76.8019H94.4929C94.2768 76.8011 94.0698 76.7142 93.9175 76.5603C93.7651 76.4064 93.6798 76.198 93.6802 75.981V58.1761C93.6808 57.9598 93.7666 57.7526 93.9189 57.5996C94.0711 57.4467 94.2775 57.3605 94.4929 57.36H95.0651V48.0785H94.4833C94.3885 48.0786 94.2947 48.0599 94.2071 48.0236C94.1195 47.9872 94.04 47.9339 93.973 47.8666C93.906 47.7993 93.8528 47.7194 93.8166 47.6315C93.7804 47.5435 93.7619 47.4493 93.762 47.3541V37.638C93.7615 37.4453 93.8373 37.2603 93.9725 37.1236C94.1077 36.9869 94.2914 36.9096 94.4833 36.9088H95.0651V17.235C95.0653 12.6641 96.8734 8.28037 100.092 5.04821C103.31 1.81605 107.675 0.000166487 112.227 1.76395e-10H215.027C219.579 -2.06644e-05 223.945 1.81565 227.164 5.04771C230.383 8.27977 232.192 12.6636 232.194 17.235V63.4881H232.977C233.269 63.4889 233.549 63.6056 233.755 63.8129C233.961 64.0201 234.078 64.3009 234.078 64.594Z" fill="#3F3D56"/>
<path d="M168.58 8.84058H151.875C151.2 8.84058 150.653 9.39015 150.653 10.0681V11.5181C150.653 12.196 151.2 12.7456 151.875 12.7456H168.58C169.255 12.7456 169.802 12.196 169.802 11.5181V10.0681C169.802 9.39015 169.255 8.84058 168.58 8.84058Z" fill="#E6E8EC"/>
<path d="M174.903 13.008C176.121 13.008 177.108 12.0163 177.108 10.7931C177.108 9.56979 176.121 8.57812 174.903 8.57812C173.685 8.57812 172.697 9.56979 172.697 10.7931C172.697 12.0163 173.685 13.008 174.903 13.008Z" fill="#E6E8EC"/>
<path d="M223.973 20.6443V264.074C223.972 266.974 222.824 269.755 220.782 271.805C218.739 273.855 215.97 275.007 213.082 275.007H114.677C113.246 275.01 111.829 274.729 110.507 274.18C109.185 273.632 107.983 272.827 106.971 271.811C105.96 270.795 105.157 269.589 104.611 268.261C104.064 266.934 103.783 265.511 103.785 264.074V20.6443C103.785 19.2079 104.067 17.7856 104.614 16.4585C105.162 15.1314 105.964 13.9256 106.975 12.9099C107.986 11.8942 109.187 11.0885 110.509 10.5389C111.83 9.98923 113.246 9.70636 114.677 9.70642H129.405V11.6043C129.405 13.9929 130.35 16.2836 132.032 17.9726C133.713 19.6616 135.994 20.6105 138.373 20.6105H188.42C190.798 20.6105 193.079 19.6616 194.761 17.9726C196.443 16.2836 197.387 13.9929 197.387 11.6043V9.70642H213.082C214.513 9.70596 215.929 9.98856 217.251 10.5381C218.572 11.0876 219.773 11.8932 220.785 12.909C221.796 13.9248 222.598 15.1308 223.145 16.458C223.693 17.7853 223.974 19.2078 223.973 20.6443Z" fill="#0288D1"/>
<path opacity="0.2" d="M220.146 89.5076H108.589V144.076H220.146V89.5076Z" fill="black"/>
<path d="M475.795 135.775H364.238V190.343H475.795V135.775Z" fill="#F2F2F2"/>
<path d="M220.146 172.22H108.589V226.789H220.146V172.22Z" fill="#3F3D56"/>
<path d="M208.606 49.078C213.917 49.078 218.223 44.7539 218.223 39.4198C218.223 34.0857 213.917 29.7616 208.606 29.7616C203.294 29.7616 198.989 34.0857 198.989 39.4198C198.989 44.7539 203.294 49.078 208.606 49.078Z" fill="white"/>
<path d="M212.933 39.1094H208.914V35.0737H208.297V39.1094H204.278V39.7304H208.297V43.7661H208.914V39.7304H212.933V39.1094Z" fill="#3F3D56"/>
<path d="M463.293 128.531H351.736V183.1H463.293V128.531Z" fill="#3F3D56"/>
<path d="M401.536 165.17C404.456 176.011 414.459 182.725 414.459 182.725C414.459 182.725 419.727 171.862 416.807 161.021C413.886 150.18 403.884 143.465 403.884 143.465C403.884 143.465 398.616 154.328 401.536 165.17Z" fill="white"/>
<path d="M405.827 162.84C413.84 170.674 414.819 182.716 414.819 182.716C414.819 182.716 402.806 182.058 394.793 174.224C386.779 166.39 385.801 154.347 385.801 154.347C385.801 154.347 397.814 155.006 405.827 162.84Z" fill="#0288D1"/>
<path d="M153.504 209.689C156.425 220.531 166.427 227.245 166.427 227.245C166.427 227.245 171.695 216.382 168.775 205.541C165.855 194.699 155.852 187.985 155.852 187.985C155.852 187.985 150.584 198.848 153.504 209.689Z" fill="white"/>
<path d="M157.796 207.359C165.809 215.193 166.788 227.236 166.788 227.236C166.788 227.236 154.774 226.577 146.761 218.743C138.748 210.909 137.769 198.867 137.769 198.867C137.769 198.867 149.782 199.525 157.796 207.359Z" fill="#0288D1"/>
<path d="M180.071 209.689C177.15 220.531 167.148 227.245 167.148 227.245C167.148 227.245 161.88 216.382 164.8 205.541C167.721 194.699 177.723 187.985 177.723 187.985C177.723 187.985 182.991 198.848 180.071 209.689Z" fill="white"/>
<path d="M175.78 207.359C167.766 215.193 166.788 227.236 166.788 227.236C166.788 227.236 178.801 226.577 186.814 218.743C194.827 210.909 195.806 198.867 195.806 198.867C195.806 198.867 183.793 199.525 175.78 207.359Z" fill="#0288D1"/>
<path d="M244.188 80.8152H132.631V135.384H244.188V80.8152Z" fill="#3F3D56"/>
<path d="M188.962 99.525H188V135.459H188.962V99.525Z" fill="white"/>
<path d="M188.481 105.089C191.275 105.089 193.541 102.814 193.541 100.008C193.541 97.2014 191.275 94.9263 188.481 94.9263C185.686 94.9263 183.421 97.2014 183.421 100.008C183.421 102.814 185.686 105.089 188.481 105.089Z" fill="#0288D1"/>
<path d="M188.481 121.672C188.481 121.672 187.758 106.058 172.94 107.873L188.481 121.672Z" fill="white"/>
</svg>
