<svg width="500" height="215" viewBox="0 0 500 215" fill="none" xmlns="http://www.w3.org/2000/svg">
<g clip-path="url(#clip0)">
<path d="M237.215 213.981H343.501C347.697 213.981 347.704 207.718 343.501 207.718H237.215C233.019 207.718 233.012 213.981 237.215 213.981Z" fill="#E6E6E6"/>
<path d="M208.519 77.8845H102.589C101.47 77.8858 100.397 78.3134 99.6061 79.0733C98.8148 79.8332 98.3697 80.8636 98.3683 81.9383V102.149C103.652 102.269 107.082 106.456 107.913 111.54V129.862H108.314C108.378 129.862 108.439 129.887 108.485 129.93C108.53 129.974 108.555 130.032 108.555 130.093V139.843C108.555 139.904 108.53 139.963 108.485 140.006C108.439 140.05 108.378 140.074 108.314 140.074H107.913V199.002C107.913 200.297 107.9 202.659 107.9 202.659H208.519C209.638 202.658 210.711 202.23 211.502 201.47C212.293 200.71 212.738 199.68 212.74 198.605V81.9383C212.738 80.8636 212.293 79.8332 211.502 79.0733C210.711 78.3133 209.638 77.8858 208.519 77.8845Z" fill="#0288D1"/>
<path d="M405.332 11.3829V121.975H220.066V73.2836C220.064 71.0727 219.148 68.9529 217.52 67.3896C215.892 65.8262 213.685 64.947 211.383 64.9449H176.638V11.3829H405.332Z" fill="#0288D1"/>
<path d="M416.771 137.566H220.273V136.795H415.969V6.55075C415.967 5.01831 415.332 3.54913 414.204 2.46554C413.076 1.38194 411.546 0.77241 409.95 0.770674H169.621C168.025 0.772411 166.495 1.38194 165.367 2.46554C164.239 3.54913 163.604 5.01831 163.602 6.55075V64.4455H162.8V6.55075C162.802 4.81398 163.521 3.14891 164.8 1.92083C166.079 0.692752 167.812 0.00195463 169.621 0H409.95C411.759 0.00195187 413.492 0.692743 414.771 1.92082C416.05 3.1489 416.769 4.81398 416.771 6.55075V137.566Z" fill="#3F3D56"/>
<path d="M398.152 161.071H220.273V160.301H398.152C402.876 160.295 407.404 158.491 410.744 155.283C414.084 152.075 415.963 147.726 415.969 143.189V137.566H220.273V136.795H416.771V143.189C416.765 147.93 414.802 152.476 411.312 155.828C407.821 159.18 403.089 161.066 398.152 161.071Z" fill="#3F3D56"/>
<path d="M345.361 198.834C335.445 189.69 328.922 177.758 326.825 161.071H253.741C252.998 176.682 246.516 188.39 234.824 198.793L233.588 198.835C245.652 188.335 252.296 176.541 252.956 160.67L252.971 160.301H327.538L327.579 160.641C329.639 177.61 336.299 189.619 346.459 198.773L345.361 198.834Z" fill="#3F3D56"/>
<path d="M211.189 214.777H98.6086V214.006H211.189C213.491 214.004 215.698 213.124 217.326 211.561C218.953 209.998 219.869 207.878 219.871 205.668V73.4605C219.869 71.2498 218.953 69.1303 217.326 67.5671C215.698 66.0039 213.491 65.1246 211.189 65.1221H98.6086C96.3067 65.1246 94.0999 66.0039 92.4723 67.5671C90.8447 69.1303 89.9292 71.2498 89.9266 73.4605V101.992H89.1241V73.4605C89.127 71.0455 90.1271 68.7301 91.9052 67.0225C93.6833 65.3148 96.094 64.3542 98.6086 64.3514H211.189C213.704 64.3542 216.115 65.3148 217.893 67.0224C219.671 68.7301 220.671 71.0455 220.674 73.4605V205.668C220.671 208.083 219.671 210.398 217.893 212.106C216.115 213.813 213.704 214.774 211.189 214.777Z" fill="#3F3D56"/>
<path d="M154.899 74.1015C154.361 74.1015 153.835 73.9482 153.387 73.6611C152.94 73.374 152.591 72.9659 152.385 72.4884C152.179 72.011 152.126 71.4856 152.23 70.9787C152.335 70.4719 152.595 70.0063 152.975 69.6408C153.356 69.2754 153.84 69.0265 154.368 68.9257C154.896 68.8249 155.443 68.8766 155.94 69.0744C156.437 69.2721 156.862 69.607 157.161 70.0367C157.46 70.4664 157.62 70.9716 157.62 71.4884C157.619 72.1812 157.332 72.8454 156.822 73.3352C156.312 73.8251 155.62 74.1007 154.899 74.1015ZM154.899 69.4795C154.485 69.4795 154.081 69.5973 153.737 69.8181C153.393 70.0388 153.125 70.3526 152.966 70.7197C152.808 71.0868 152.767 71.4907 152.847 71.8804C152.928 72.2702 153.127 72.6281 153.42 72.9091C153.712 73.1901 154.085 73.3814 154.491 73.4589C154.897 73.5364 155.317 73.4966 155.699 73.3445C156.082 73.1925 156.408 72.935 156.638 72.6046C156.868 72.2742 156.991 71.8858 156.991 71.4884C156.99 70.9558 156.769 70.4452 156.377 70.0685C155.985 69.6919 155.453 69.4801 154.899 69.4795Z" fill="#3F3D56"/>
<path d="M154.899 211.823C154.212 211.823 153.541 211.627 152.97 211.261C152.399 210.895 151.954 210.374 151.692 209.765C151.429 209.155 151.36 208.485 151.494 207.838C151.628 207.191 151.959 206.597 152.444 206.131C152.93 205.665 153.548 205.347 154.222 205.218C154.895 205.09 155.593 205.156 156.227 205.408C156.862 205.661 157.404 206.088 157.785 206.636C158.167 207.184 158.37 207.829 158.371 208.488C158.369 209.372 158.003 210.22 157.353 210.845C156.702 211.47 155.819 211.822 154.899 211.823ZM154.899 205.925C154.371 205.925 153.855 206.075 153.416 206.357C152.977 206.639 152.635 207.039 152.433 207.508C152.231 207.976 152.178 208.491 152.281 208.989C152.384 209.486 152.638 209.943 153.012 210.301C153.385 210.66 153.861 210.904 154.378 211.003C154.896 211.102 155.433 211.051 155.92 210.857C156.408 210.663 156.825 210.334 157.118 209.913C157.412 209.491 157.568 208.996 157.568 208.488C157.567 207.809 157.286 207.157 156.785 206.677C156.285 206.196 155.607 205.926 154.899 205.925Z" fill="#3F3D56"/>
<path d="M97.4779 215H60.2106C57.405 214.997 54.7153 213.925 52.7314 212.02C50.7476 210.114 49.6317 207.531 49.6285 204.837V112.155C49.6317 109.46 50.7476 106.877 52.7314 104.972C54.7153 103.066 57.405 101.995 60.2105 101.992H97.478C100.284 101.995 102.973 103.066 104.957 104.972C106.941 106.877 108.057 109.46 108.06 112.155V128.741C108.25 128.817 108.412 128.945 108.527 129.11C108.641 129.274 108.702 129.468 108.702 129.666L108.702 140.458C108.702 140.655 108.641 140.849 108.527 141.013C108.412 141.178 108.25 141.306 108.06 141.383V204.837C108.057 207.531 106.941 210.115 104.957 212.02C102.973 213.925 100.283 214.997 97.4779 215ZM60.2105 102.762C57.6177 102.765 55.132 103.756 53.2986 105.516C51.4652 107.277 50.4339 109.665 50.431 112.155V204.837C50.4339 207.327 51.4652 209.714 53.2986 211.475C55.132 213.236 57.6177 214.226 60.2106 214.229H97.4779C100.071 214.226 102.556 213.236 104.39 211.475C106.223 209.714 107.255 207.327 107.258 204.837V140.689H107.659C107.723 140.689 107.784 140.664 107.829 140.621C107.874 140.578 107.9 140.519 107.9 140.458L107.9 129.666C107.9 129.604 107.874 129.545 107.829 129.502C107.784 129.459 107.723 129.434 107.659 129.434H107.258V112.155C107.255 109.665 106.223 107.277 104.39 105.516C102.556 103.756 100.071 102.765 97.478 102.762H60.2105Z" fill="#3F3D56"/>
<path d="M97.8888 104.921H93.0241C93.2478 105.448 93.3332 106.019 93.2728 106.585C93.2124 107.151 93.0079 107.694 92.6775 108.166C92.3471 108.638 91.9009 109.025 91.3781 109.293C90.8554 109.56 90.2721 109.7 89.6798 109.7H68.3298C67.7375 109.7 67.1542 109.56 66.6315 109.293C66.1087 109.025 65.6625 108.638 65.3321 108.166C65.0017 107.694 64.7973 107.151 64.7368 106.585C64.6764 106.019 64.7618 105.448 64.9855 104.921H60.4419C58.4255 104.921 56.4917 105.69 55.0658 107.059C53.64 108.429 52.839 110.286 52.839 112.223V204.769C52.839 206.705 53.64 208.563 55.0658 209.932C56.4917 211.301 58.4255 212.071 60.4419 212.071H97.8888C99.9052 212.071 101.839 211.301 103.265 209.932C104.691 208.563 105.492 206.705 105.492 204.769V112.223C105.492 110.286 104.691 108.429 103.265 107.059C101.839 105.69 99.9052 104.921 97.8888 104.921Z" fill="#0288D1"/>
<path d="M499.523 214.849H0.477931C0.41506 214.849 0.35277 214.838 0.294623 214.815C0.236477 214.792 0.183617 214.758 0.139085 214.715C0.0945531 214.673 0.0592223 214.622 0.0351135 214.566C0.0110046 214.51 -0.00140381 214.451 -0.00140381 214.39C-0.00140381 214.33 0.0110046 214.27 0.0351135 214.214C0.0592223 214.159 0.0945531 214.108 0.139085 214.065C0.183617 214.023 0.236477 213.989 0.294623 213.966C0.35277 213.943 0.41506 213.931 0.477931 213.932H499.523C499.585 213.931 499.648 213.943 499.706 213.966C499.764 213.989 499.817 214.023 499.861 214.065C499.906 214.108 499.941 214.159 499.965 214.214C499.989 214.27 500.002 214.33 500.002 214.39C500.002 214.451 499.989 214.51 499.965 214.566C499.941 214.622 499.906 214.673 499.861 214.715C499.817 214.758 499.764 214.792 499.706 214.815C499.648 214.838 499.585 214.849 499.523 214.849Z" fill="#3F3D56"/>
<path d="M345.609 214.633H234.471C233.364 214.634 232.268 214.425 231.245 214.019C230.222 213.613 229.292 213.017 228.509 212.265C227.726 211.514 227.105 210.621 226.681 209.639C226.257 208.657 226.039 207.604 226.039 206.541C226.039 205.478 226.257 204.425 226.681 203.443C227.105 202.461 227.726 201.568 228.509 200.817C229.292 200.065 230.222 199.469 231.245 199.063C232.268 198.657 233.364 198.448 234.471 198.449H345.609C347.842 198.451 349.984 199.304 351.562 200.821C353.141 202.339 354.028 204.396 354.028 206.541C354.028 208.686 353.141 210.743 351.562 212.261C349.984 213.778 347.842 214.631 345.609 214.633ZM234.471 199.22C232.449 199.22 230.51 199.991 229.081 201.364C227.651 202.737 226.848 204.599 226.848 206.541C226.848 208.483 227.651 210.345 229.081 211.718C230.51 213.091 232.449 213.863 234.471 213.863H345.609C347.631 213.863 349.569 213.091 350.999 211.718C352.429 210.345 353.232 208.483 353.232 206.541C353.232 204.599 352.429 202.737 350.999 201.364C349.569 199.991 347.631 199.22 345.609 199.22H234.471Z" fill="#3F3D56"/>
<path d="M426.306 153.021L429.418 159.271L456 150.715L451.406 141.49L426.306 153.021Z" fill="#FFB8B8"/>
<path d="M429.378 174.1L419.596 154.457L427.498 150.827L433.79 163.461C434.716 165.32 434.835 167.456 434.12 169.399C433.406 171.343 431.918 172.934 429.982 173.823L429.378 174.1Z" fill="#2F2E41"/>
<path d="M420.039 208.836L427.249 208.602L427.552 181.649L419.101 182.128L420.039 208.836Z" fill="#FFB8B8"/>
<path d="M441.238 214.951H418.566V206.538H433.148C435.294 206.538 437.352 207.356 438.869 208.813C440.386 210.27 441.238 212.247 441.238 214.307V214.951Z" fill="#2F2E41"/>
<path d="M420.633 204.787C420.028 204.787 419.441 204.592 418.965 204.234C418.489 203.876 418.152 203.375 418.008 202.811C414.058 187.57 399.362 110.782 412.358 95.7L412.471 95.5685L412.643 95.5267C413.555 95.305 430.752 90.1915 440.843 98.1732L440.961 98.2665L446.577 113.879L461.716 135.462C462.545 136.644 463.118 137.974 463.402 139.373C463.686 140.772 463.675 142.211 463.369 143.606C463.064 145 462.47 146.322 461.622 147.492C460.775 148.662 459.692 149.656 458.437 150.417L438.558 162.465C438.077 162.744 437.519 162.873 436.96 162.835C436.4 162.797 435.866 162.594 435.432 162.254C435.066 161.964 434.786 161.587 434.616 161.162L430.439 151.131C430.189 150.523 430.185 149.848 430.427 149.237C430.669 148.626 431.139 148.124 431.746 147.828L441.06 143.355C441.315 143.22 441.536 143.034 441.708 142.808C441.88 142.582 441.998 142.323 442.055 142.049C442.08 141.801 442.042 141.55 441.945 141.319C441.847 141.088 441.693 140.883 441.495 140.721L430.684 131.77C430.443 131.571 430.148 131.444 429.833 131.404C429.518 131.364 429.198 131.413 428.912 131.545C428.626 131.677 428.387 131.887 428.223 132.148C428.059 132.409 427.978 132.71 427.99 133.015L430.67 200.968C430.695 201.606 430.476 202.231 430.054 202.724C429.631 203.217 429.036 203.545 428.379 203.645L421.067 204.754C420.923 204.776 420.778 204.787 420.633 204.787Z" fill="#2F2E41"/>
<path d="M439.283 100.943C439.222 100.943 439.16 100.941 439.099 100.936L412.136 99.0182C411.762 98.9922 411.399 98.8836 411.076 98.7009C410.752 98.5183 410.477 98.2665 410.271 97.9651C410.066 97.6637 409.935 97.3208 409.889 96.9631C409.844 96.6054 409.885 96.2424 410.009 95.9024C411.668 91.3099 411.872 86.3483 410.594 81.6448C408.838 74.9948 408.797 62.6302 408.928 55.8518C408.958 54.7026 409.438 53.6065 410.272 52.7821C411.106 51.9578 412.233 51.4657 413.428 51.4041L413.428 51.3949L413.972 51.4013C418.364 51.4604 426.424 51.7614 433.02 53.0794C435.243 53.5213 437.243 54.6768 438.691 56.3558C440.139 58.0348 440.948 60.1372 440.986 62.3169C441.136 68.6101 441.158 77.1283 440.414 81.9704C439.787 86.0555 440.945 93.9004 441.692 98.213C441.75 98.5488 441.731 98.8928 441.636 99.2209C441.542 99.549 441.374 99.8535 441.145 100.113C440.916 100.373 440.631 100.582 440.309 100.725C439.988 100.868 439.637 100.943 439.283 100.943H439.283Z" fill="#3F3D56"/>
<path d="M448.908 125.628C448.19 125.298 447.556 124.82 447.051 124.229C446.545 123.638 446.181 122.947 445.984 122.206C445.786 121.465 445.76 120.692 445.908 119.94C446.056 119.188 446.373 118.477 446.838 117.856L434.385 66.282H443.799L454.79 116.839C455.824 117.658 456.51 118.813 456.717 120.086C456.924 121.358 456.638 122.659 455.914 123.742C455.189 124.826 454.075 125.616 452.784 125.964C451.493 126.311 450.114 126.192 448.908 125.628H448.908Z" fill="#FFB8B8"/>
<path d="M389.931 71.8688L404.84 58.3241L410.457 65.8761L396.415 77.7436L414.83 91.7883C414.963 91.7797 415.095 91.7688 415.231 91.7688C416.364 91.7678 417.474 92.0803 418.427 92.669C419.38 93.2577 420.136 94.0976 420.605 95.0883C421.074 96.079 421.236 97.1785 421.072 98.2553C420.907 99.3321 420.423 100.341 419.677 101.16C418.932 101.979 417.956 102.575 416.867 102.876C415.778 103.177 414.622 103.17 413.537 102.856C412.452 102.543 411.484 101.935 410.749 101.107C410.013 100.279 409.542 99.2648 409.392 98.1862L409.333 98.242L390.168 82.2891C389.395 81.646 388.771 80.8546 388.336 79.9659C387.902 79.0772 387.666 78.1109 387.643 77.1293C387.621 76.1476 387.813 75.1723 388.207 74.2663C388.601 73.3603 389.189 72.5436 389.931 71.8688Z" fill="#FFB8B8"/>
<path d="M435.377 69.5866C434.916 69.588 434.464 69.4634 434.074 69.2274C433.684 68.9914 433.372 68.6537 433.175 68.2538C431.987 65.8451 431.169 63.2837 430.747 60.6495C430.1 56.3468 433.215 53.7872 436.383 53.2297C439.465 52.6871 443.218 53.9883 444.178 58.1266C444.258 58.4769 444.32 58.8309 444.364 59.1872C444.748 62.3243 445.109 64.7641 445.438 66.4394C445.503 66.7687 445.493 67.1076 445.409 67.4331C445.326 67.7585 445.171 68.0631 444.955 68.3262C444.739 68.5893 444.466 68.8049 444.156 68.9584C443.846 69.1119 443.505 69.1997 443.157 69.2161L435.502 69.5835C435.46 69.5856 435.418 69.5866 435.377 69.5866Z" fill="#3F3D56"/>
<path d="M424.702 46.9618C433.706 46.9618 441.004 39.9518 441.004 31.3046C441.004 22.6574 433.706 15.6475 424.702 15.6475C415.698 15.6475 408.4 22.6574 408.4 31.3046C408.4 39.9518 415.698 46.9618 424.702 46.9618Z" fill="#2F2E41"/>
<path d="M424.8 48.1875C432.172 48.1875 438.147 42.4484 438.147 35.3689C438.147 28.2895 432.172 22.5504 424.8 22.5504C417.429 22.5504 411.453 28.2895 411.453 35.3689C411.453 42.4484 417.429 48.1875 424.8 48.1875Z" fill="#FFB8B8"/>
<path d="M401.111 63.3483C400.771 63.0503 400.525 62.6652 400.404 62.2382C400.282 61.8112 400.29 61.3598 400.425 60.9368C401.244 58.3902 402.443 55.9712 403.985 53.7552C406.535 50.1635 410.632 50.2979 413.36 51.9425C416.013 53.5421 417.865 56.9369 415.661 60.6104C415.474 60.9209 415.271 61.2222 415.052 61.513C413.129 64.075 411.679 66.1083 410.743 67.5567C410.558 67.8414 410.313 68.0849 410.023 68.2708C409.732 68.4567 409.404 68.5807 409.059 68.6343C408.715 68.688 408.362 68.6702 408.026 68.5821C407.689 68.4939 407.376 68.3375 407.107 68.1233L401.206 63.4272C401.173 63.4016 401.142 63.3753 401.111 63.3483Z" fill="#3F3D56"/>
<path d="M421.535 17.3214C418.255 15.4415 417.545 10.7601 419.499 7.6078C421.453 4.45547 425.403 2.81109 429.221 2.70271C434.676 2.5479 439.943 5.15614 443.761 8.90033C447.579 12.6445 450.098 17.4373 452.018 22.3429C453.938 27.2485 455.316 32.3364 457.207 37.252C458.178 39.7744 459.374 42.3644 461.594 44.0024C463.815 45.6404 467.345 45.9359 469.243 43.9591C469.236 47.1224 466.711 49.998 463.579 50.9774C460.447 51.9568 456.905 51.2172 454.159 49.4698C449.396 46.4383 447.096 40.9046 445.782 35.5641C444.467 30.2235 443.82 24.6274 441.177 19.762C440.082 17.7461 438.582 15.8311 436.47 14.8025C434.359 13.7739 431.546 13.8414 429.848 15.4255C429.061 16.1592 428.552 17.1596 427.659 17.7713C427.094 18.1106 426.456 18.3214 425.794 18.3877C425.131 18.4539 424.461 18.3739 423.836 18.1536C422.59 17.7037 421.424 17.0717 420.378 16.28" fill="#2F2E41"/>
<path d="M410.862 26.7079C412.148 28.3689 413.771 29.7626 415.633 30.8051C417.495 31.8475 419.558 32.5171 421.696 32.7735C423.835 33.0299 426.006 32.8678 428.077 32.2969C430.149 31.726 432.079 30.7582 433.751 29.4518C435.047 28.4392 436.251 27.0437 436.169 25.441C436.086 23.7995 434.689 22.5102 433.263 21.6023C429.51 19.2335 424.997 18.2376 420.544 18.7957C418.004 19.1236 415.456 20.0128 413.657 21.7664C411.858 23.52 410.961 26.2474 411.889 28.5422" fill="#2F2E41"/>
</g>
<defs>
<clipPath id="clip0">
<rect width="500" height="215" fill="white"/>
</clipPath>
</defs>
</svg>
