<svg width="350" height="300" viewBox="0 0 350 300" fill="none" xmlns="http://www.w3.org/2000/svg">
<g clip-path="url(#clip0)">
<path d="M85.1972 77.9528H35.8104C33.7012 77.9528 31.9914 79.7154 31.9914 81.8898V181.079C31.9914 183.253 33.7012 185.016 35.8104 185.016H85.1972C87.3063 185.016 89.0161 183.253 89.0161 181.079V81.8898C89.0161 79.7154 87.3063 77.9528 85.1972 77.9528Z" fill="url(#paint0_linear)"/>
<path d="M83.8834 79.7126H37.1241C35.0149 79.7126 33.3051 81.4752 33.3051 83.6496V178.591C33.3051 180.765 35.0149 182.528 37.1241 182.528H83.8834C85.9926 182.528 87.7024 180.765 87.7024 178.591V83.6496C87.7024 81.4752 85.9926 79.7126 83.8834 79.7126Z" fill="white"/>
<path d="M81.7158 86.7885L39.6003 86.8491L39.7137 170.518L81.8291 170.458L81.7158 86.7885Z" fill="#E6E6E6"/>
<path d="M60.7805 180.063C62.6345 180.06 64.1353 178.47 64.1326 176.511C64.1299 174.552 62.6249 172.966 60.7709 172.968C58.917 172.971 57.4162 174.561 57.4189 176.52C57.4215 178.479 58.9266 180.065 60.7805 180.063Z" fill="#DBDBDB"/>
<path d="M54.2761 83.6313C54.6473 83.6307 54.9478 83.313 54.9473 82.9216C54.9468 82.5303 54.6454 82.2134 54.2742 82.2139C53.903 82.2145 53.6025 82.5322 53.603 82.9236C53.6035 83.3149 53.9049 83.6318 54.2761 83.6313Z" fill="#DBDBDB"/>
<path d="M67.3237 82.3723L57.6771 82.3862C57.4661 82.3865 57.2954 82.563 57.2957 82.7804L57.2961 83.056C57.2964 83.2734 57.4676 83.4495 57.6785 83.4492L67.3252 83.4353C67.5361 83.435 67.7068 83.2585 67.7065 83.041L67.7062 82.7654C67.7059 82.548 67.5347 82.372 67.3237 82.3723Z" fill="#DBDBDB"/>
<path d="M72.6366 135.339H48.791V161.15H72.6366V135.339Z" fill="url(#paint1_linear)"/>
<path d="M71.6017 136.461H49.8298V160.028H71.6017V136.461Z" fill="#0288D1"/>
<g opacity="0.5">
<path opacity="0.5" d="M62.3636 147.142V146.697H63.5093V144.417C63.8563 143.874 64.0562 143.245 64.0883 142.596C64.1205 141.946 63.9836 141.3 63.692 140.723C63.4004 140.146 62.9645 139.66 62.4296 139.315C61.8946 138.971 61.28 138.779 60.6494 138.762C60.0187 138.744 59.3949 138.9 58.8425 139.214C58.2901 139.529 57.8292 139.989 57.5075 140.549C57.1858 141.108 57.0149 141.746 57.0126 142.397C57.0103 143.047 57.1766 143.686 57.4944 144.248V146.697H58.7585V147.22C57.2102 147.661 55.8447 148.612 54.8714 149.929C53.8981 151.246 53.3706 152.856 53.3699 154.512V161.15H68.0691V154.512C68.0683 152.799 67.5034 151.137 66.4669 149.798C65.4304 148.459 63.9837 147.523 62.3636 147.142Z" fill="url(#paint2_linear)"/>
</g>
<path d="M63.2534 142.52H57.8114V147.008H63.2534V142.52Z" fill="#F55F44"/>
<path d="M58.9877 147.244H62.4247C63.7273 147.244 64.9764 147.777 65.8975 148.727C66.8185 149.676 67.3359 150.964 67.3359 152.307V160.094H54.0765V152.299C54.0785 150.958 54.5968 149.672 55.5176 148.724C56.4384 147.776 57.6865 147.244 58.9877 147.244Z" fill="#FDD835"/>
<path d="M61.0002 145H60.1562C59.4918 145 58.9532 145.555 58.9532 146.24V147.949C58.9532 148.634 59.4918 149.189 60.1562 149.189H61.0002C61.6646 149.189 62.2032 148.634 62.2032 147.949V146.24C62.2032 145.555 61.6646 145 61.0002 145Z" fill="#FDA57D"/>
<path d="M59.9576 149.063L60.5649 149.976L61.2026 149.063H59.9576Z" fill="#FDA57D"/>
<path opacity="0.1" d="M56.5741 152.362C56.5741 152.362 55.9287 158.984 56.345 159.413L56.5741 152.362Z" fill="black"/>
<path opacity="0.1" d="M64.5557 152.362C64.5557 152.362 65.2011 158.984 64.7848 159.413L64.5557 152.362Z" fill="black"/>
<path opacity="0.05" d="M60.5802 147.035C61.1575 147.036 61.7197 146.846 62.1841 146.492C62.1233 146.098 61.9285 145.74 61.6346 145.481C61.3406 145.222 60.9668 145.079 60.5802 145.079C60.1935 145.079 59.8197 145.222 59.5258 145.481C59.2318 145.74 59.037 146.098 58.9762 146.492C59.4406 146.846 60.0029 147.036 60.5802 147.035Z" fill="black"/>
<path d="M60.5802 146.433C62.3498 146.433 63.7843 144.954 63.7843 143.13C63.7843 141.306 62.3498 139.827 60.5802 139.827C58.8106 139.827 57.3761 141.306 57.3761 143.13C57.3761 144.954 58.8106 146.433 60.5802 146.433Z" fill="#F55F44"/>
<path d="M60.5801 146.953C62.0755 146.953 63.2878 145.703 63.2878 144.161C63.2878 142.62 62.0755 141.37 60.5801 141.37C59.0848 141.37 57.8725 142.62 57.8725 144.161C57.8725 145.703 59.0848 146.953 60.5801 146.953Z" fill="#FDA57D"/>
<path d="M57.8649 144.335C57.9704 144.335 58.0558 144.176 58.0558 143.98C58.0558 143.785 57.9704 143.626 57.8649 143.626C57.7594 143.626 57.674 143.785 57.674 143.98C57.674 144.176 57.7594 144.335 57.8649 144.335Z" fill="#FDA57D"/>
<path d="M63.2992 144.335C63.4047 144.335 63.4902 144.176 63.4902 143.98C63.4902 143.785 63.4047 143.626 63.2992 143.626C63.1938 143.626 63.1083 143.785 63.1083 143.98C63.1083 144.176 63.1938 144.335 63.2992 144.335Z" fill="#FDA57D"/>
<path d="M79.0906 92.2283H42.337V93.874H79.0906V92.2283Z" fill="white"/>
<path d="M79.0906 95.5197H42.337V97.1654H79.0906V95.5197Z" fill="white"/>
<path d="M63.1121 98.8149H42.337V100.461H63.1121V98.8149Z" fill="white"/>
<path d="M72.6977 102.11H42.337V103.756H72.6977V102.11Z" fill="white"/>
<path d="M67.9049 105.406H42.337V107.051H67.9049V105.406Z" fill="white"/>
<path d="M79.0906 108.701H42.337V110.346H79.0906V108.701Z" fill="white"/>
<path d="M75.898 113.642H43.9371V126.819H75.898V113.642Z" fill="white"/>
<path d="M269.416 179.972C269.416 179.972 274.763 217.842 306.151 230.421L242.641 230.512L179.132 230.602C210.47 217.933 215.737 180.047 215.737 180.047L269.416 179.972Z" fill="#E0E0E0"/>
<path d="M306.717 230.413L178.499 230.598L178.51 238.598L306.728 238.413L306.717 230.413Z" fill="url(#paint3_linear)"/>
<path d="M306.159 230.414L179.141 230.597L179.149 236.77L306.168 236.587L306.159 230.414Z" fill="#F5F5F5"/>
<path d="M345.708 43.7008L139.14 43.9961C138.016 44.0239 136.949 44.5107 136.174 45.3495C135.398 46.1882 134.977 47.3101 135.004 48.4685L135.164 172.713V176.85C135.164 186.299 142.279 193.933 151.032 193.921L334.193 193.661C342.943 193.661 350.027 185.988 350.015 176.547V172.413L349.855 48.1693C349.868 47.5951 349.77 47.0239 349.569 46.4884C349.367 45.9529 349.065 45.4637 348.68 45.0487C348.295 44.6337 347.834 44.301 347.324 44.0697C346.814 43.8384 346.265 43.7131 345.708 43.7008Z" fill="url(#paint4_linear)"/>
<path d="M141.592 47.8622H343.038C344.127 47.8622 345.171 48.3081 345.941 49.1018C346.711 49.8955 347.143 50.972 347.143 52.0945V170.331H137.483V52.0945C137.483 51.5383 137.589 50.9877 137.795 50.4739C138.002 49.9602 138.305 49.4935 138.686 49.1004C139.068 48.7073 139.521 48.3957 140.02 48.1832C140.518 47.9708 141.052 47.8617 141.592 47.8622Z" fill="white"/>
<path d="M332.788 189.984L152.396 190.24C150.474 190.243 148.57 189.855 146.794 189.099C145.017 188.344 143.403 187.234 142.042 185.835C140.681 184.436 139.601 182.775 138.864 180.945C138.126 179.116 137.745 177.154 137.742 175.173V170.055L347.403 169.756V174.874C347.406 176.856 347.03 178.818 346.298 180.65C345.565 182.482 344.489 184.147 343.132 185.55C341.775 186.953 340.162 188.067 338.388 188.828C336.613 189.589 334.71 189.982 332.788 189.984Z" fill="#F5F5F5"/>
<path d="M337.569 57.7834H147.84V156.65H337.569V57.7834Z" fill="#E6E6E6"/>
<path d="M321.236 64.3032H287.652V100.657H321.236V64.3032Z" fill="url(#paint5_linear)"/>
<path d="M319.777 65.8859H289.111V99.0788H319.777V65.8859Z" fill="#0288D1"/>
<g opacity="0.5">
<path opacity="0.5" d="M306.54 80.6457L306.158 80.504L306.135 80.5394H306.113V79.4685C306.113 79.3367 306.102 79.205 306.082 79.0748C306.701 78.6055 307.174 77.9614 307.445 77.2205C307.98 76.5058 308.31 75.6508 308.398 74.7527C308.485 73.8545 308.327 72.949 307.941 72.1389C307.554 71.3287 306.956 70.6464 306.212 70.1692C305.469 69.692 304.611 69.4391 303.735 69.4391C302.86 69.4391 302.001 69.692 301.258 70.1692C300.515 70.6464 299.916 71.3287 299.53 72.1389C299.144 72.949 298.985 73.8545 299.073 74.7527C299.16 75.6508 299.49 76.5058 300.025 77.2205C300.296 77.9614 300.77 78.6055 301.388 79.0748C301.368 79.205 301.358 79.3367 301.358 79.4685V80.6496C299.309 81.2329 297.501 82.493 296.214 84.2367C294.926 85.9804 294.228 88.1115 294.228 90.3032V99.0866H313.628V90.2913C313.629 88.1067 312.937 85.9817 311.657 84.2403C310.377 82.4988 308.58 81.2365 306.54 80.6457Z" fill="url(#paint6_linear)"/>
</g>
<path d="M303.34 80.4292H304.524C306.846 80.4292 309.074 81.3803 310.716 83.0733C312.358 84.7663 313.281 87.0625 313.281 89.4567V98.5118H294.568V89.4567C294.568 88.2699 294.795 87.0947 295.236 85.9984C295.677 84.9021 296.323 83.9062 297.138 83.0677C297.953 82.2292 298.92 81.5646 299.984 81.1118C301.048 80.6591 302.189 80.4271 303.34 80.4292Z" fill="#514ABF"/>
<path d="M303.886 77.2834H303.6C302.414 77.2834 301.453 78.2741 301.453 79.496V80.9724C301.453 82.1944 302.414 83.185 303.6 83.185H303.886C305.071 83.185 306.032 82.1944 306.032 80.9724V79.496C306.032 78.2741 305.071 77.2834 303.886 77.2834Z" fill="#FDA57D"/>
<path opacity="0.05" d="M299.865 81.4724L301.4 84.8661L302.924 83.2953L301.4 80.8819L299.865 81.4724Z" fill="black"/>
<path d="M299.918 81.3071L301.446 84.7008L302.973 83.126L301.446 80.7166L300.743 80.937C300.674 80.959 300.607 80.9853 300.541 81.0158L299.918 81.3071Z" fill="white"/>
<path opacity="0.05" d="M307.625 81.3071L306.086 84.8661L304.558 83.2953L306.128 80.7559L307.625 81.3071Z" fill="black"/>
<path d="M307.571 81.1417L306.044 84.685L304.516 83.1102L306.086 80.5709L306.372 80.6575C306.683 80.749 306.988 80.8608 307.285 80.9921L307.571 81.1417Z" fill="white"/>
<path d="M302.863 83.0039L303.718 84.2874L304.619 83.0039H302.863Z" fill="#FDA57D"/>
<path opacity="0.1" d="M298.096 87.6536C298.096 87.6536 297.188 96.9803 297.776 97.5866L298.096 87.6536Z" fill="black"/>
<path opacity="0.1" d="M309.34 87.6536C309.34 87.6536 310.249 96.9803 309.66 97.5866L309.34 87.6536Z" fill="black"/>
<path opacity="0.05" d="M303.741 80.1457C304.554 80.1457 305.346 79.8782 306.002 79.3819C305.916 78.8276 305.641 78.3231 305.226 77.9587C304.812 77.5944 304.285 77.3941 303.741 77.3937C303.196 77.3941 302.67 77.5944 302.256 77.9587C301.841 78.3231 301.566 78.8276 301.48 79.3819C302.136 79.8782 302.928 80.1457 303.741 80.1457Z" fill="black"/>
<path d="M303.741 79.2953C306.232 79.2953 308.251 77.2136 308.251 74.6457C308.251 72.0778 306.232 69.9961 303.741 69.9961C301.25 69.9961 299.231 72.0778 299.231 74.6457C299.231 77.2136 301.25 79.2953 303.741 79.2953Z" fill="black"/>
<path d="M303.741 80.0355C305.848 80.0355 307.556 78.2746 307.556 76.1024C307.556 73.9302 305.848 72.1693 303.741 72.1693C301.634 72.1693 299.926 73.9302 299.926 76.1024C299.926 78.2746 301.634 80.0355 303.741 80.0355Z" fill="#FDA57D"/>
<path opacity="0.05" d="M300.667 72.2047L301.629 73.4173C301.629 73.4173 305.857 73.811 306.338 72.811C306.819 71.811 303.554 71.0984 303.554 71.0984L300.667 72.2047Z" fill="black"/>
<path d="M300.667 72.0945L301.629 73.3071C301.629 73.3071 305.857 73.7008 306.338 72.7008C306.819 71.7008 303.554 70.9882 303.554 70.9882L300.667 72.0945Z" fill="black"/>
<path d="M299.918 76.3425C300.066 76.3425 300.185 76.1204 300.185 75.8465C300.185 75.5725 300.066 75.3504 299.918 75.3504C299.771 75.3504 299.651 75.5725 299.651 75.8465C299.651 76.1204 299.771 76.3425 299.918 76.3425Z" fill="#FDA57D"/>
<path d="M307.571 76.3425C307.719 76.3425 307.839 76.1204 307.839 75.8465C307.839 75.5725 307.719 75.3504 307.571 75.3504C307.424 75.3504 307.304 75.5725 307.304 75.8465C307.304 76.1204 307.424 76.3425 307.571 76.3425Z" fill="#FDA57D"/>
<path d="M321.43 107.913H287.846V144.268H321.43V107.913Z" fill="url(#paint7_linear)"/>
<path d="M319.972 109.492H289.305V142.685H319.972V109.492Z" fill="#0288D1"/>
<g opacity="0.5">
<path opacity="0.5" d="M306.957 124.449V123.228C306.957 123.169 306.957 123.106 306.957 123.047C307.606 122.546 308.102 121.863 308.385 121.079C308.855 120.451 309.177 119.719 309.327 118.941C309.476 118.163 309.449 117.36 309.248 116.595C309.046 115.83 308.675 115.123 308.165 114.53C307.654 113.937 307.017 113.474 306.303 113.177C306.358 112.927 306.359 112.668 306.306 112.418C306.252 112.169 306.147 111.934 305.996 111.73C305.845 111.527 305.652 111.361 305.432 111.242C305.212 111.124 304.969 111.057 304.721 111.047C304.473 111.036 304.226 111.081 303.997 111.18C303.767 111.278 303.562 111.427 303.395 111.617C303.228 111.806 303.103 112.031 303.03 112.275C302.956 112.52 302.936 112.778 302.97 113.031C302.2 113.276 301.499 113.709 300.927 114.293C300.355 114.878 299.929 115.596 299.685 116.388C299.441 117.179 299.387 118.02 299.528 118.838C299.668 119.655 299.999 120.426 300.491 121.083C300.774 121.867 301.27 122.55 301.919 123.051C301.919 123.11 301.919 123.169 301.919 123.232V124.524C299.787 124.945 297.863 126.119 296.479 127.843C295.094 129.567 294.335 131.734 294.331 133.972V144.331H314.992V133.988C314.991 131.667 314.178 129.424 312.702 127.672C311.226 125.919 309.186 124.775 306.957 124.449Z" fill="url(#paint8_linear)"/>
</g>
<path d="M304.047 124.669H305.23C306.38 124.669 307.519 124.903 308.581 125.356C309.644 125.81 310.609 126.475 311.422 127.313C312.236 128.152 312.881 129.147 313.321 130.242C313.761 131.337 313.987 132.511 313.987 133.697V142.752H295.274V133.697C295.274 131.303 296.197 129.006 297.839 127.313C299.481 125.62 301.709 124.669 304.031 124.669H304.047Z" fill="white"/>
<path d="M304.589 121.524H304.302C303.117 121.524 302.156 122.514 302.156 123.736V125.213C302.156 126.435 303.117 127.425 304.302 127.425H304.589C305.774 127.425 306.735 126.435 306.735 125.213V123.736C306.735 122.514 305.774 121.524 304.589 121.524Z" fill="#FDB797"/>
<path d="M303.569 127.244L304.425 128.528L305.322 127.244H303.569Z" fill="#FDB797"/>
<path opacity="0.1" d="M298.803 131.89C298.803 131.89 297.894 141.217 298.482 141.823L298.803 131.89Z" fill="black"/>
<path opacity="0.1" d="M310.046 131.89C310.046 131.89 310.955 141.217 310.367 141.823L310.046 131.89Z" fill="black"/>
<path opacity="0.05" d="M304.463 124.386C305.276 124.386 306.068 124.118 306.724 123.622C306.637 123.068 306.362 122.563 305.948 122.199C305.534 121.835 305.007 121.634 304.463 121.634C303.913 121.627 303.379 121.824 302.958 122.189C302.538 122.554 302.258 123.062 302.171 123.622C302.835 124.125 303.639 124.393 304.463 124.386Z" fill="black"/>
<path d="M304.447 123.535C306.938 123.535 308.958 121.454 308.958 118.886C308.958 116.318 306.938 114.236 304.447 114.236C301.957 114.236 299.937 116.318 299.937 118.886C299.937 121.454 301.957 123.535 304.447 123.535Z" fill="#FDD835"/>
<path d="M304.447 124.276C306.555 124.276 308.263 122.515 308.263 120.343C308.263 118.17 306.555 116.409 304.447 116.409C302.34 116.409 300.632 118.17 300.632 120.343C300.632 122.515 302.34 124.276 304.447 124.276Z" fill="#FDB797"/>
<path d="M300.621 120.583C300.768 120.583 300.888 120.361 300.888 120.087C300.888 119.813 300.768 119.591 300.621 119.591C300.473 119.591 300.354 119.813 300.354 120.087C300.354 120.361 300.473 120.583 300.621 120.583Z" fill="#FDB797"/>
<path d="M308.278 120.583C308.426 120.583 308.545 120.361 308.545 120.087C308.545 119.813 308.426 119.591 308.278 119.591C308.13 119.591 308.011 119.813 308.011 120.087C308.011 120.361 308.13 120.583 308.278 120.583Z" fill="#FDB797"/>
<path d="M304.638 115.815C305.484 115.815 306.17 115.108 306.17 114.236C306.17 113.364 305.484 112.657 304.638 112.657C303.793 112.657 303.107 113.364 303.107 114.236C303.107 115.108 303.793 115.815 304.638 115.815Z" fill="#FDD835"/>
<path d="M301.572 115.815C301.572 115.815 303.099 118.965 307.705 117.39L306.177 115.815H301.572Z" fill="#FDD835"/>
<path d="M247.465 70.189H163.073V73.9724H247.465V70.189Z" fill="white"/>
<path d="M247.465 77.752H163.073V81.5354H247.465V77.752Z" fill="white"/>
<path d="M210.772 85.3189H163.073V89.1024H210.772V85.3189Z" fill="white"/>
<path d="M232.788 92.8819H163.073V96.6654H232.788V92.8819Z" fill="white"/>
<path d="M221.778 100.449H163.073V104.232H221.778V100.449Z" fill="white"/>
<path d="M247.465 108.012H163.073V111.795H247.465V108.012Z" fill="white"/>
<path d="M240.125 119.362H166.743V149.622H240.125V119.362Z" fill="white"/>
<path d="M52.9995 240.406H12.6369V13.4488H251.135V32.3622" stroke="#0288D1" stroke-width="6" stroke-miterlimit="10" stroke-dasharray="12 12"/>
<g opacity="0.5">
<path opacity="0.5" d="M13.8628 28.5827C21.519 28.5827 27.7256 22.1842 27.7256 14.2913C27.7256 6.39845 21.519 0 13.8628 0C6.2066 0 0 6.39845 0 14.2913C0 22.1842 6.2066 28.5827 13.8628 28.5827Z" fill="url(#paint9_linear)"/>
</g>
<path d="M13.8628 27.7402C21.0677 27.7402 26.9084 21.7189 26.9084 14.2913C26.9084 6.86377 21.0677 0.842529 13.8628 0.842529C6.65796 0.842529 0.817261 6.86377 0.817261 14.2913C0.817261 21.7189 6.65796 27.7402 13.8628 27.7402Z" fill="#0288D1"/>
<path d="M8.97072 13.4488L13.8628 18.0709L20.7904 7.56299L23.2384 9.66535L13.8628 22.2756L6.9314 14.2913L8.97072 13.4488Z" fill="white"/>
<path d="M162.035 130.72L69.3026 130.854C65.6812 130.859 62.7496 133.889 62.7546 137.623L62.9654 293.253C62.9705 296.986 65.9103 300.008 69.5317 300.003L162.264 299.87C165.885 299.864 168.817 296.834 168.812 293.1L168.601 137.47C168.596 133.737 165.656 130.715 162.035 130.72Z" fill="url(#paint10_linear)"/>
<path d="M161.578 143.642L70.1718 143.773L70.3639 285.643L161.771 285.512L161.578 143.642Z" fill="url(#paint11_linear)"/>
<path d="M160.533 133.277L70.8108 133.406C68.1364 133.41 65.9713 135.648 65.9751 138.406L66.1801 289.779C66.1838 292.536 68.3549 294.768 71.0293 294.765L160.752 294.635C163.426 294.632 165.591 292.393 165.588 289.636L165.383 138.262C165.379 135.505 163.208 133.273 160.533 133.277Z" fill="white"/>
<path d="M158.789 145.611L72.9431 145.734L73.1264 281.073L158.973 280.949L158.789 145.611Z" fill="#E6E6E6"/>
<path d="M115.863 291.713C117.816 291.713 119.4 290.04 119.4 287.976C119.4 285.913 117.816 284.24 115.863 284.24C113.91 284.24 112.327 285.913 112.327 287.976C112.327 290.04 113.91 291.713 115.863 291.713Z" fill="#DBDBDB"/>
<path d="M101.006 141.084C101.658 141.083 102.186 140.525 102.185 139.838C102.184 139.151 101.655 138.594 101.003 138.595C100.351 138.596 99.8236 139.154 99.8246 139.841C99.8255 140.528 100.355 141.085 101.006 141.084Z" fill="#DBDBDB"/>
<path d="M121.939 139.061L107.19 139.083C107.03 139.083 106.9 139.217 106.9 139.382L106.901 140.028C106.902 140.193 107.032 140.327 107.192 140.327L121.941 140.305C122.101 140.305 122.231 140.171 122.231 140.006L122.23 139.36C122.23 139.195 122.099 139.061 121.939 139.061Z" fill="#DBDBDB"/>
<path d="M149.023 229.055H115.44V265.409H149.023V229.055Z" fill="url(#paint12_linear)"/>
<path d="M147.565 230.638H116.898V263.831H147.565V230.638Z" fill="#0288D1"/>
<g opacity="0.5">
<path opacity="0.5" d="M134.84 245.402L134.458 245.26L134.435 245.295H134.412V244.224C134.412 244.093 134.402 243.961 134.382 243.831C135 243.361 135.474 242.717 135.745 241.976C136.28 241.262 136.61 240.407 136.697 239.509C136.785 238.61 136.626 237.705 136.24 236.895C135.854 236.085 135.255 235.402 134.512 234.925C133.769 234.448 132.91 234.195 132.035 234.195C131.159 234.195 130.301 234.448 129.558 234.925C128.814 235.402 128.216 236.085 127.829 236.895C127.443 237.705 127.285 238.61 127.372 239.509C127.46 240.407 127.79 241.262 128.325 241.976C128.596 242.717 129.069 243.361 129.688 243.831C129.668 243.961 129.657 244.093 129.657 244.224V245.406C127.608 245.989 125.801 247.249 124.513 248.993C123.225 250.736 122.528 252.867 122.527 255.059V263.843H141.947V255.043C141.946 252.857 141.25 250.731 139.967 248.99C138.684 247.249 136.883 245.989 134.84 245.402Z" fill="url(#paint13_linear)"/>
</g>
<path d="M131.64 245.181H132.823C135.146 245.181 137.373 246.132 139.016 247.825C140.658 249.518 141.58 251.814 141.58 254.209V263.264H122.867V254.209C122.867 253.022 123.094 251.847 123.535 250.75C123.976 249.654 124.623 248.658 125.438 247.82C126.252 246.981 127.22 246.317 128.284 245.864C129.348 245.411 130.488 245.179 131.64 245.181Z" fill="#0288D1"/>
<path d="M132.186 242.035H131.899C130.714 242.035 129.753 243.026 129.753 244.248V245.724C129.753 246.946 130.714 247.937 131.899 247.937H132.186C133.371 247.937 134.332 246.946 134.332 245.724V244.248C134.332 243.026 133.371 242.035 132.186 242.035Z" fill="#BE7C5E"/>
<path d="M131.162 247.756L132.018 249.039L132.919 247.756H131.162Z" fill="#BE7C5E"/>
<path opacity="0.1" d="M126.396 252.406C126.396 252.406 125.487 261.732 126.075 262.339L126.396 252.406Z" fill="black"/>
<path opacity="0.1" d="M137.639 252.406C137.639 252.406 138.548 261.732 137.96 262.339L137.639 252.406Z" fill="black"/>
<path opacity="0.05" d="M132.041 244.882C132.854 244.882 133.646 244.614 134.301 244.118C134.215 243.564 133.94 243.059 133.526 242.695C133.112 242.331 132.585 242.13 132.041 242.13C131.496 242.13 130.969 242.331 130.555 242.695C130.141 243.059 129.866 243.564 129.78 244.118C130.435 244.614 131.227 244.882 132.041 244.882Z" fill="black"/>
<path d="M132.041 244.047C134.531 244.047 136.551 241.966 136.551 239.398C136.551 236.83 134.531 234.748 132.041 234.748C129.55 234.748 127.53 236.83 127.53 239.398C127.53 241.966 129.55 244.047 132.041 244.047Z" fill="#444444"/>
<path d="M132.041 244.787C134.148 244.787 135.856 243.027 135.856 240.854C135.856 238.682 134.148 236.921 132.041 236.921C129.933 236.921 128.225 238.682 128.225 240.854C128.225 243.027 129.933 244.787 132.041 244.787Z" fill="#BE7C5E"/>
<path opacity="0.05" d="M128.966 236.957L129.929 238.169C129.929 238.169 134.156 238.563 134.637 237.563C135.119 236.563 131.853 235.85 131.853 235.85L128.966 236.957Z" fill="black"/>
<path d="M128.966 236.846L129.929 238.059C129.929 238.059 134.156 238.453 134.637 237.453C135.119 236.453 131.853 235.74 131.853 235.74L128.966 236.846Z" fill="#444444"/>
<path d="M128.218 241.094C128.365 241.094 128.485 240.872 128.485 240.598C128.485 240.324 128.365 240.102 128.218 240.102C128.07 240.102 127.95 240.324 127.95 240.598C127.95 240.872 128.07 241.094 128.218 241.094Z" fill="#BE7C5E"/>
<path d="M135.871 241.094C136.019 241.094 136.138 240.872 136.138 240.598C136.138 240.324 136.019 240.102 135.871 240.102C135.723 240.102 135.604 240.324 135.604 240.598C135.604 240.872 135.723 241.094 135.871 241.094Z" fill="#BE7C5E"/>
<path d="M129.058 235.075C129.357 234.682 129.768 234.397 130.234 234.26C131.078 233.913 131.957 233.559 132.862 233.622C132.95 233.621 133.036 233.647 133.11 233.697C133.17 233.763 133.221 233.839 133.259 233.921C133.534 234.343 134.305 234.315 134.404 234.811C134.431 234.972 134.366 235.146 134.404 235.303C134.504 235.697 135.042 235.657 135.359 235.882C135.528 236.039 135.63 236.258 135.645 236.492C135.659 236.726 135.584 236.956 135.436 237.134C135.121 237.478 134.714 237.716 134.267 237.819C133.482 238.129 132.629 238.207 131.804 238.043C130.647 237.732 127.939 236.961 129.058 235.075Z" fill="#444444"/>
<path d="M114.653 228.661H81.0688V265.016H114.653V228.661Z" fill="url(#paint14_linear)"/>
<path d="M113.194 230.244H82.5277V263.437H113.194V230.244Z" fill="#0288D1"/>
<g opacity="0.5">
<path opacity="0.5" d="M100.469 245.008L100.087 244.866L100.064 244.902H100.041V243.831C100.041 243.699 100.031 243.567 100.011 243.437C100.63 242.968 101.103 242.324 101.374 241.583C101.909 240.868 102.239 240.013 102.327 239.115C102.414 238.217 102.256 237.311 101.869 236.501C101.483 235.691 100.884 235.009 100.141 234.531C99.3979 234.054 98.5398 233.801 97.6642 233.801C96.7885 233.801 95.9304 234.054 95.1871 234.531C94.4438 235.009 93.8451 235.691 93.4588 236.501C93.0726 237.311 92.9142 238.217 93.0018 239.115C93.0893 240.013 93.4192 240.868 93.954 241.583C94.2252 242.324 94.6987 242.968 95.3174 243.437C95.297 243.567 95.2868 243.699 95.2869 243.831V245.012C93.2376 245.595 91.4304 246.855 90.1425 248.599C88.8546 250.343 88.1571 252.474 88.1569 254.665V263.449H107.576V254.65C107.575 252.463 106.88 250.337 105.596 248.596C104.313 246.855 102.512 245.595 100.469 245.008Z" fill="url(#paint15_linear)"/>
</g>
<path d="M97.2689 244.787H98.4528C99.6028 244.787 100.741 245.021 101.804 245.475C102.866 245.928 103.832 246.593 104.645 247.431C105.458 248.27 106.103 249.265 106.543 250.36C106.983 251.455 107.21 252.629 107.21 253.815V262.87H88.4968V253.815C88.4968 252.628 88.7238 251.453 89.1648 250.357C89.6058 249.26 90.2522 248.264 91.067 247.426C91.8818 246.587 92.8489 245.923 93.9131 245.47C94.9773 245.017 96.1177 244.785 97.2689 244.787Z" fill="#514ABF"/>
<path d="M97.815 241.642H97.5286C96.3432 241.642 95.3823 242.632 95.3823 243.854V245.331C95.3823 246.553 96.3432 247.543 97.5286 247.543H97.815C99.0003 247.543 99.9612 246.553 99.9612 245.331V243.854C99.9612 242.632 99.0003 241.642 97.815 241.642Z" fill="#FDA57D"/>
<path opacity="0.1" d="M92.0254 252.012C92.0254 252.012 91.1166 261.339 91.7047 261.945L92.0254 252.012Z" fill="black"/>
<path opacity="0.1" d="M103.268 252.012C103.268 252.012 104.177 261.339 103.589 261.945L103.268 252.012Z" fill="black"/>
<path opacity="0.05" d="M97.6699 244.488C98.4832 244.488 99.2752 244.221 99.9307 243.724C99.8445 243.17 99.5696 242.666 99.1553 242.301C98.741 241.937 98.2144 241.737 97.6699 241.736C97.1253 241.737 96.5987 241.937 96.1844 242.301C95.7702 242.666 95.4953 243.17 95.4091 243.724C96.0646 244.221 96.8566 244.488 97.6699 244.488Z" fill="black"/>
<path d="M97.6699 243.654C100.161 243.654 102.18 241.572 102.18 239.004C102.18 236.436 100.161 234.354 97.6699 234.354C95.179 234.354 93.1597 236.436 93.1597 239.004C93.1597 241.572 95.179 243.654 97.6699 243.654Z" fill="#444444"/>
<path d="M97.6699 244.394C99.7769 244.394 101.485 242.633 101.485 240.461C101.485 238.288 99.7769 236.528 97.6699 236.528C95.5628 236.528 93.8547 238.288 93.8547 240.461C93.8547 242.633 95.5628 244.394 97.6699 244.394Z" fill="#FDA57D"/>
<path opacity="0.05" d="M94.5956 236.563L95.558 237.776C95.558 237.776 99.7856 238.169 100.267 237.169C100.748 236.169 97.4828 235.457 97.4828 235.457L94.5956 236.563Z" fill="black"/>
<path d="M94.5956 236.453L95.558 237.665C95.558 237.665 99.7856 238.059 100.267 237.059C100.748 236.059 97.4828 235.346 97.4828 235.346L94.5956 236.453Z" fill="#444444"/>
<path d="M93.8471 240.701C93.9947 240.701 94.1144 240.479 94.1144 240.205C94.1144 239.931 93.9947 239.709 93.8471 239.709C93.6995 239.709 93.5798 239.931 93.5798 240.205C93.5798 240.479 93.6995 240.701 93.8471 240.701Z" fill="#FDA57D"/>
<path d="M101.5 240.701C101.648 240.701 101.768 240.479 101.768 240.205C101.768 239.931 101.648 239.709 101.5 239.709C101.353 239.709 101.233 239.931 101.233 240.205C101.233 240.479 101.353 240.701 101.5 240.701Z" fill="#FDA57D"/>
<path d="M144.727 162.925H82.3521V165.721H144.727V162.925Z" fill="white"/>
<path d="M144.727 168.516H82.3521V171.311H144.727V168.516Z" fill="white"/>
<path d="M117.609 174.106H82.3521V176.902H117.609V174.106Z" fill="white"/>
<path d="M133.881 179.701H82.3521V182.496H133.881V179.701Z" fill="white"/>
<path d="M125.743 185.291H82.3521V188.087H125.743V185.291Z" fill="white"/>
<path d="M144.727 190.882H82.3521V193.677H144.727V190.882Z" fill="white"/>
<path d="M139.304 199.272H85.0635V221.638H139.304V199.272Z" fill="white"/>
<path d="M95.0195 238.976C95.212 238.625 95.3718 238.256 95.4969 237.874C95.6996 237.421 96.0197 237.035 96.422 236.758C96.8242 236.481 97.2928 236.325 97.7761 236.305C98.2593 236.285 98.7384 236.404 99.1604 236.648C99.5825 236.891 99.931 237.25 100.167 237.685C100.481 238.264 100.584 238.949 100.931 239.508C100.981 239.546 101.037 239.573 101.097 239.588C101.157 239.602 101.219 239.604 101.28 239.592C101.34 239.581 101.398 239.557 101.449 239.521C101.5 239.486 101.544 239.439 101.577 239.386C101.637 239.272 101.672 239.146 101.679 239.017C101.687 238.887 101.666 238.758 101.619 238.638C101.538 238.394 101.405 238.169 101.317 237.929C101.229 237.538 101.101 237.158 100.935 236.795C100.731 236.521 100.47 236.296 100.171 236.138C99.3273 235.602 98.3497 235.047 97.3949 235.35C97.0728 235.464 96.768 235.624 96.4898 235.827L95.2754 236.614C94.8849 236.84 94.5359 237.134 94.2443 237.484C93.9808 237.839 93.4805 238.898 93.7134 239.354C93.9884 239.874 94.7789 239.303 95.0195 238.976Z" fill="#444444"/>
<path d="M96.7114 247.244V262.886H98.9531L98.6208 247.244H96.7114Z" fill="white"/>
<path d="M96.3371 247.031L97.6355 248.98L99.0027 247.031H96.3371Z" fill="#FDA57D"/>
</g>
<defs>
<linearGradient id="paint0_linear" x1="60.5076" y1="185.702" x2="60.5076" y2="78.2969" gradientUnits="userSpaceOnUse">
<stop stop-color="#808080" stop-opacity="0.25"/>
<stop offset="0.54" stop-color="#808080" stop-opacity="0.12"/>
<stop offset="1" stop-color="#808080" stop-opacity="0.1"/>
</linearGradient>
<linearGradient id="paint1_linear" x1="3839.76" y1="10700.3" x2="3839.76" y2="9008.15" gradientUnits="userSpaceOnUse">
<stop stop-color="#808080" stop-opacity="0.25"/>
<stop offset="0.54" stop-color="#808080" stop-opacity="0.12"/>
<stop offset="1" stop-color="#808080" stop-opacity="0.1"/>
</linearGradient>
<linearGradient id="paint2_linear" x1="4474.15" y1="10848" x2="4474.15" y2="9574.76" gradientUnits="userSpaceOnUse">
<stop stop-color="#808080" stop-opacity="0.25"/>
<stop offset="0.54" stop-color="#808080" stop-opacity="0.12"/>
<stop offset="1" stop-color="#808080" stop-opacity="0.1"/>
</linearGradient>
<linearGradient id="paint3_linear" x1="99779" y1="5488.07" x2="99778.7" y2="5325.43" gradientUnits="userSpaceOnUse">
<stop stop-color="#808080" stop-opacity="0.25"/>
<stop offset="0.54" stop-color="#808080" stop-opacity="0.12"/>
<stop offset="1" stop-color="#808080" stop-opacity="0.1"/>
</linearGradient>
<linearGradient id="paint4_linear" x1="167169" y1="87830.2" x2="167169" y2="30395.6" gradientUnits="userSpaceOnUse">
<stop stop-color="#808080" stop-opacity="0.25"/>
<stop offset="0.54" stop-color="#808080" stop-opacity="0.12"/>
<stop offset="1" stop-color="#808080" stop-opacity="0.1"/>
</linearGradient>
<linearGradient id="paint5_linear" x1="27060.4" y1="9359.01" x2="27060.4" y2="6002.06" gradientUnits="userSpaceOnUse">
<stop stop-color="#808080" stop-opacity="0.25"/>
<stop offset="0.54" stop-color="#808080" stop-opacity="0.12"/>
<stop offset="1" stop-color="#808080" stop-opacity="0.1"/>
</linearGradient>
<linearGradient id="paint6_linear" x1="17991" y1="8460.28" x2="18977.5" y2="8460.28" gradientUnits="userSpaceOnUse">
<stop stop-color="#808080" stop-opacity="0.25"/>
<stop offset="0.54" stop-color="#808080" stop-opacity="0.12"/>
<stop offset="1" stop-color="#808080" stop-opacity="0.1"/>
</linearGradient>
<linearGradient id="paint7_linear" x1="27077.7" y1="13429.6" x2="27077.7" y2="10072.6" gradientUnits="userSpaceOnUse">
<stop stop-color="#808080" stop-opacity="0.25"/>
<stop offset="0.54" stop-color="#808080" stop-opacity="0.12"/>
<stop offset="1" stop-color="#808080" stop-opacity="0.1"/>
</linearGradient>
<linearGradient id="paint8_linear" x1="19704.1" y1="14611.6" x2="19704.1" y2="11798.6" gradientUnits="userSpaceOnUse">
<stop stop-color="#808080" stop-opacity="0.25"/>
<stop offset="0.54" stop-color="#808080" stop-opacity="0.12"/>
<stop offset="1" stop-color="#808080" stop-opacity="0.1"/>
</linearGradient>
<linearGradient id="paint9_linear" x1="1006.44" y1="2074.82" x2="1006.44" y2="0" gradientUnits="userSpaceOnUse">
<stop stop-color="#808080" stop-opacity="0.25"/>
<stop offset="0.54" stop-color="#808080" stop-opacity="0.12"/>
<stop offset="1" stop-color="#808080" stop-opacity="0.1"/>
</linearGradient>
<linearGradient id="paint10_linear" x1="47327.5" y1="143153" x2="47222.4" y2="70148" gradientUnits="userSpaceOnUse">
<stop stop-color="#808080" stop-opacity="0.25"/>
<stop offset="0.54" stop-color="#808080" stop-opacity="0.12"/>
<stop offset="1" stop-color="#808080" stop-opacity="0.1"/>
</linearGradient>
<linearGradient id="paint11_linear" x1="116.075" y1="287.018" x2="115.87" y2="144.495" gradientUnits="userSpaceOnUse">
<stop stop-opacity="0.09"/>
<stop offset="0.55" stop-opacity="0.07"/>
<stop offset="1" stop-opacity="0.02"/>
</linearGradient>
<linearGradient id="paint12_linear" x1="11743.9" y1="24737" x2="11743.9" y2="21380" gradientUnits="userSpaceOnUse">
<stop stop-color="#808080" stop-opacity="0.25"/>
<stop offset="0.54" stop-color="#808080" stop-opacity="0.12"/>
<stop offset="1" stop-color="#808080" stop-opacity="0.1"/>
</linearGradient>
<linearGradient id="paint13_linear" x1="9105.75" y1="21031.7" x2="10093.2" y2="21031.7" gradientUnits="userSpaceOnUse">
<stop stop-color="#808080" stop-opacity="0.25"/>
<stop offset="0.54" stop-color="#808080" stop-opacity="0.12"/>
<stop offset="1" stop-color="#808080" stop-opacity="0.1"/>
</linearGradient>
<linearGradient id="paint14_linear" x1="8686.95" y1="24700.2" x2="8686.95" y2="21343.3" gradientUnits="userSpaceOnUse">
<stop stop-color="#808080" stop-opacity="0.25"/>
<stop offset="0.54" stop-color="#808080" stop-opacity="0.12"/>
<stop offset="1" stop-color="#808080" stop-opacity="0.1"/>
</linearGradient>
<linearGradient id="paint15_linear" x1="7323.64" y1="21001.6" x2="8311.11" y2="21001.6" gradientUnits="userSpaceOnUse">
<stop stop-color="#808080" stop-opacity="0.25"/>
<stop offset="0.54" stop-color="#808080" stop-opacity="0.12"/>
<stop offset="1" stop-color="#808080" stop-opacity="0.1"/>
</linearGradient>
<clipPath id="clip0">
<rect width="350" height="300" fill="white"/>
</clipPath>
</defs>
</svg>
