<svg width="300" height="250" viewBox="0 0 300 250" fill="none" xmlns="http://www.w3.org/2000/svg">
<g clip-path="url(#clip0)">
<path d="M29.5324 250C45.8427 250 59.0648 247.394 59.0648 244.18C59.0648 240.966 45.8427 238.361 29.5324 238.361C13.2221 238.361 0 240.966 0 244.18C0 247.394 13.2221 250 29.5324 250Z" fill="#E9E9E9"/>
<path d="M54.081 157.668L55.2365 159.919C55.2365 159.919 61.7949 168.17 57.7434 169.463C53.6919 170.755 51.542 161.637 51.542 161.637L50.4709 160.361L54.081 157.668Z" fill="#A0616A"/>
<path d="M46.5263 115.046L47.6043 114.616C47.6043 114.616 48.8801 115.046 48.8801 116.895C48.8801 118.744 47.3109 145.742 47.3109 145.742L50.4494 160.535L46.134 161.274L39.4647 147.591L46.5263 115.046Z" fill="#636363"/>
<path d="M46.5263 115.046L47.6043 114.616C47.6043 114.616 48.8801 115.046 48.8801 116.895C48.8801 118.744 47.3109 145.742 47.3109 145.742L55.7455 158.501L50.2532 162.199L39.4647 147.591L46.5263 115.046Z" fill="#636363"/>
<path d="M45.7417 157.946C45.7417 157.946 50.8417 159.795 50.4494 163.124C50.057 166.452 44.957 232.652 44.957 232.652L46.5263 240.048L31.6185 240.418L31.2262 192.71L20.6339 240.418H5.72615L16.3185 156.467L45.7417 157.946Z" fill="#2F2E41"/>
<path d="M44.5647 238.569L48.0955 241.897C48.0955 241.897 56.334 243.377 54.3724 245.965C52.4109 248.554 32.0108 245.226 32.0108 245.226L32.4032 239.308L44.5647 238.569Z" fill="#2F2E41"/>
<path d="M19.0647 238.569L22.5954 241.897C22.5954 241.897 30.8339 243.377 28.8724 245.965C26.9108 248.554 6.51077 245.226 6.51077 245.226L6.90308 239.308L19.0647 238.569Z" fill="#2F2E41"/>
<path d="M33.1878 101.732C38.3878 101.732 42.6032 97.758 42.6032 92.8559C42.6032 87.9539 38.3878 83.98 33.1878 83.98C27.9878 83.98 23.7724 87.9539 23.7724 92.8559C23.7724 97.758 27.9878 101.732 33.1878 101.732Z" fill="#A0616A"/>
<path d="M39.0726 98.0337L38.2879 113.196L26.126 106.54L27.6955 98.0337H39.0726Z" fill="#A0616A"/>
<path d="M25.7339 102.841L37.111 110.608L39.0726 105.06L42.6033 113.936L40.6416 129.839L25.7339 102.841Z" fill="#0288D1"/>
<path d="M26.9535 101.745L38.2878 118.004L38.7424 104.411L40.1383 105.448C40.9065 106.019 41.5275 106.746 41.9544 107.576C42.3814 108.406 42.6032 109.316 42.6032 110.238L48.0955 115.046L46.134 133.537L45.7416 155.357C45.7416 155.357 48.0955 157.206 47.3109 158.316C46.5263 159.425 43.3878 162.014 39.857 162.014C36.3262 162.014 14.3569 159.425 14.3569 157.946C14.3569 156.467 15.1416 137.235 15.1416 137.235V111.347L24.557 104.69L26.9535 101.745Z" fill="#636363"/>
<path d="M13.5724 163.124L18.6725 170.15L20.6337 162.014L18.28 160.535L13.5724 163.124Z" fill="#A0616A"/>
<path opacity="0.2" d="M38.3119 173.72L30.7701 192.978L31.5063 193.235L39.0481 173.977L38.3119 173.72Z" fill="black"/>
<path d="M27.4993 84.1649C27.4993 84.1649 28.6762 78.6175 35.3455 79.727L34.5609 80.0968C34.5609 80.0968 40.8378 79.3572 40.0532 82.6856C40.0532 82.6856 45.1532 85.6443 43.9763 88.9727C43.2842 90.9019 42.7594 92.8808 42.407 94.89L41.2301 93.7805C41.2301 93.7805 40.0532 86.3839 32.9916 87.1236C27.6954 87.6783 25.5377 90.036 24.9861 91.7349C24.7321 92.5337 24.4079 93.3112 24.0168 94.0592L23.5762 94.1503C23.5762 94.1503 21.2223 86.0141 27.4993 84.1649Z" fill="#2F2E41"/>
<path d="M19.457 110.978L15.8857 110.821L15.1416 111.347C14.2875 112.152 13.5006 113.018 12.7877 113.936C12.0031 115.046 1.80307 142.043 1.80307 142.043C1.61379 143.683 1.88434 145.341 2.58769 146.851C3.76461 149.44 13.18 164.973 13.18 164.973L20.2416 160.905L10.8262 142.783L17.4954 133.907L19.457 110.978Z" fill="#636363"/>
<path d="M228.233 56.6393H226.843V20.7638C226.843 18.0371 226.274 15.337 225.167 12.8178C224.06 10.2986 222.437 8.00965 220.392 6.08156C218.347 4.15346 215.919 2.62401 213.246 1.58053C210.574 0.537057 207.71 -9.7379e-06 204.817 -1.90725e-06H124.19C121.298 -1.01985e-05 118.434 0.537057 115.761 1.58053C113.089 2.62401 110.661 4.15346 108.616 6.08155C106.57 8.00965 104.948 10.2986 103.841 12.8178C102.734 15.337 102.164 18.0371 102.164 20.7638V217.58C102.164 220.306 102.734 223.006 103.841 225.526C104.948 228.045 106.57 230.334 108.616 232.262C110.661 234.19 113.089 235.719 115.761 236.763C118.434 237.806 121.298 238.344 124.19 238.344H204.817C207.71 238.344 210.574 237.806 213.246 236.763C215.919 235.719 218.347 234.19 220.392 232.262C222.437 230.334 224.06 228.045 225.167 225.526C226.274 223.006 226.843 220.306 226.843 217.58V82.1761H228.233V56.6393Z" fill="#3F3D56"/>
<path d="M222.353 19.3732V218.97C222.352 223.146 220.592 227.15 217.46 230.103C214.328 233.056 210.08 234.715 205.65 234.716H123.37C118.939 234.716 114.69 233.058 111.556 230.105C108.423 227.152 106.662 223.147 106.661 218.97V19.3732C106.662 15.1965 108.423 11.1912 111.556 8.23843C114.69 5.28564 118.939 3.62712 123.37 3.62764H133.351C132.861 4.76384 132.675 5.99613 132.808 7.21619C132.941 8.43626 133.391 9.60675 134.116 10.6248C134.842 11.6428 135.822 12.4772 136.97 13.0547C138.118 13.6321 139.398 13.9349 140.7 13.9365H187.61C188.912 13.9349 190.192 13.6322 191.34 13.0547C192.488 12.4773 193.468 11.6429 194.194 10.6248C194.919 9.60677 195.369 8.43627 195.502 7.2162C195.635 5.99613 195.449 4.76384 194.959 3.62764H205.65C210.08 3.62849 214.328 5.28766 217.46 8.24034C220.592 11.193 222.352 15.1975 222.353 19.3732Z" fill="#E9E9E9"/>
<path d="M206.011 123.315H123.002V201.568H206.011V123.315Z" fill="#D9D9D9"/>
<path d="M188.153 88.0319H141.33V91.3495H188.153V88.0319Z" fill="#D9D9D9"/>
<path d="M193.991 96.6525H135.066V99.9701H193.991V96.6525Z" fill="#D9D9D9"/>
<path d="M179.234 130.869H146.922V133.159H179.234V130.869Z" fill="#E9E9E9"/>
<path d="M196.819 137.591H146.922V139.88H196.819V137.591Z" fill="#0288D1"/>
<path d="M188.106 143.992H147.441V146.281H188.106V143.992Z" fill="#E9E9E9"/>
<path d="M170.661 151.015H146.922V153.305H170.661V151.015Z" fill="#E9E9E9"/>
<path d="M182.751 157.875H146.922V160.165H182.751V157.875Z" fill="#0288D1"/>
<path d="M136.151 130.149H132.195V133.879H136.151V130.149Z" fill="#E9E9E9"/>
<path d="M136.151 136.87H132.195V140.6H136.151V136.87Z" fill="#0288D1"/>
<path d="M136.151 143.271H132.195V147.001H136.151V143.271Z" fill="#E9E9E9"/>
<path d="M136.151 150.295H132.195V154.025H136.151V150.295Z" fill="#E9E9E9"/>
<path d="M136.151 157.155H132.195V160.885H136.151V157.155Z" fill="#0288D1"/>
<path d="M179.234 164.779H146.922V167.068H179.234V164.779Z" fill="#E9E9E9"/>
<path d="M196.819 171.5H146.922V173.79H196.819V171.5Z" fill="#0288D1"/>
<path d="M188.106 177.901H147.441V180.191H188.106V177.901Z" fill="#E9E9E9"/>
<path d="M170.661 184.924H146.922V187.214H170.661V184.924Z" fill="#E9E9E9"/>
<path d="M182.751 191.785H146.922V194.074H182.751V191.785Z" fill="#E9E9E9"/>
<path d="M136.151 164.059H132.195V167.788H136.151V164.059Z" fill="#E9E9E9"/>
<path d="M136.151 170.78H132.195V174.51H136.151V170.78Z" fill="#0288D1"/>
<path d="M136.151 177.181H132.195V180.911H136.151V177.181Z" fill="#E9E9E9"/>
<path d="M136.151 184.204H132.195V187.934H136.151V184.204Z" fill="#E9E9E9"/>
<path d="M136.151 191.065H132.195V194.795H136.151V191.065Z" fill="#E9E9E9"/>
<path d="M164.507 78.0549C179.454 78.0549 191.57 66.6325 191.57 52.5421C191.57 38.4518 179.454 27.0294 164.507 27.0294C149.56 27.0294 137.443 38.4518 137.443 52.5421C137.443 66.6325 149.56 78.0549 164.507 78.0549Z" fill="#D9D9D9"/>
<path d="M164.283 40.0305C161.645 40.0305 159.065 40.7681 156.871 42.1501C154.677 43.5321 152.967 45.4963 151.957 47.7944C150.948 50.0926 150.684 52.6213 151.198 55.061C151.713 57.5007 152.984 59.7417 154.85 61.5006C156.715 63.2595 159.093 64.4573 161.681 64.9426C164.268 65.4279 166.951 65.1788 169.389 64.2269C171.827 63.275 173.91 61.663 175.376 59.5947C176.842 57.5265 177.625 55.0949 177.625 52.6074C177.614 49.2748 176.205 46.0815 173.706 43.725C171.206 41.3685 167.818 40.0403 164.283 40.0305ZM164.283 43.8036C165.075 43.8036 165.849 44.0249 166.507 44.4395C167.165 44.854 167.678 45.4433 167.981 46.1327C168.284 46.8222 168.363 47.5808 168.209 48.3127C168.054 49.0446 167.673 49.7169 167.113 50.2446C166.554 50.7723 165.84 51.1316 165.064 51.2772C164.288 51.4228 163.483 51.3481 162.752 51.0625C162.02 50.7769 161.395 50.2933 160.955 49.6728C160.516 49.0523 160.281 48.3229 160.281 47.5766C160.284 46.577 160.707 45.6192 161.457 44.9124C162.207 44.2055 163.223 43.8069 164.283 43.8036V43.8036ZM164.283 61.9675C162.702 61.9607 161.147 61.5903 159.752 60.8886C158.357 60.1868 157.165 59.1749 156.278 57.9404C156.343 55.4251 161.615 54.0404 164.283 54.0404C166.952 54.0404 172.224 55.4251 172.288 57.9404C171.401 59.1739 170.208 60.1852 168.814 60.8868C167.419 61.5885 165.864 61.9594 164.283 61.9675Z" fill="#0288D1"/>
<path d="M269.883 246.843C286.516 246.843 300 244.238 300 241.023C300 237.809 286.516 235.204 269.883 235.204C253.249 235.204 239.765 237.809 239.765 241.023C239.765 244.238 253.249 246.843 269.883 246.843Z" fill="#E9E9E9"/>
<path d="M237.962 154.712L234.007 154.066C234.007 154.066 225.923 150.549 225.433 153.212C224.942 155.876 232.657 158.235 232.657 158.235L240.96 157.397L237.962 154.712Z" fill="#FFB8B8"/>
<path d="M260.968 127.746L255.427 151.532L236.93 153.995L236.221 161.012L260.074 161.072L272.004 140.525L260.968 127.746Z" fill="#636363"/>
<path opacity="0.2" d="M260.968 127.746L255.427 151.532L236.93 153.995L236.221 161.012L260.074 161.072L272.004 140.525L260.968 127.746Z" fill="black"/>
<path d="M232.812 134.644L229.989 131.953C229.989 131.953 225.572 124.666 223.533 126.567C221.494 128.467 226.324 134.61 226.324 134.61L233.6 138.471L232.812 134.644Z" fill="#FFB8B8"/>
<path d="M271.698 120.225L275.173 119.426C276.5 119.428 277.809 119.151 279.008 118.617C280.207 118.083 281.265 117.304 282.105 116.337C282.946 115.37 283.547 114.239 283.867 113.026C284.187 111.813 284.216 110.548 283.954 109.322C283.958 106.399 282.73 103.593 280.539 101.523C278.349 99.4534 275.376 98.2885 272.275 98.2848H272.275C269.174 98.2812 266.198 99.439 264.002 101.504C261.806 103.568 260.571 106.371 260.567 109.295C260.117 110.769 260.086 112.329 260.477 113.818C260.868 115.308 261.667 116.674 262.795 117.781C263.922 118.888 265.337 119.696 266.9 120.125C268.463 120.554 270.117 120.588 271.698 120.225Z" fill="#2F2E41"/>
<path d="M251.26 174.818L254.088 204.016L259.212 232.676L267.814 232.687L266.705 204.572L262.162 170.506L251.26 174.818Z" fill="#2F2E41"/>
<path d="M260.361 231.056L254.621 234.293C254.621 234.293 245.444 235.363 247.161 238.068C248.878 240.774 268.953 239.176 268.954 238.094C268.955 237.013 268.39 231.065 267.243 231.064L260.361 231.056Z" fill="#2F2E41"/>
<path d="M276.653 172.296C276.653 172.296 276.492 176.47 272.468 182.953L273.015 202.957L293.628 227.851L286.165 233.79L260.967 206.728L254.701 174.282L262.741 166.722L276.653 172.296Z" fill="#2F2E41"/>
<path d="M291.908 227.849C291.908 227.849 298.788 228.939 297.638 231.641C296.487 234.342 293.603 246.774 286.15 245.143C286.15 245.143 282.709 245.139 283.859 242.978C284.55 241.678 285.317 240.415 286.158 239.196L286.167 232.168L291.908 227.849Z" fill="#2F2E41"/>
<path d="M267.974 120.774C272.725 120.774 276.577 117.143 276.577 112.664C276.577 108.186 272.725 104.555 267.974 104.555C263.223 104.555 259.372 108.186 259.372 112.664C259.372 117.143 263.223 120.774 267.974 120.774Z" fill="#FFB8B8"/>
<path d="M271.981 118.075L271.969 127.266L262.793 127.256L263.952 118.066L271.981 118.075Z" fill="#FFB8B8"/>
<path d="M277.638 175.93L271.945 175.032C264.683 173.881 257.245 174.176 250.111 175.898L252.686 151.735L253.021 148.585L253.739 141.84C253.739 141.84 251.257 132.951 254.9 129.949C259.346 126.283 263.283 123.365 263.283 123.365L271.975 124.021C276.834 133.155 275.781 144.635 272.503 157.003L277.638 175.93Z" fill="#636363"/>
<path d="M268.149 125.274L248.992 141.611L232.413 133.495L228.933 137.511L243.577 149.675C244.583 150.355 245.765 150.766 246.999 150.866C248.232 150.966 249.472 150.75 250.586 150.242L269.268 141.719L268.149 125.274Z" fill="#636363"/>
<path d="M284.58 106.69C287.645 106.69 290.13 104.347 290.13 101.457C290.13 98.5678 287.645 96.2253 284.58 96.2253C281.515 96.2253 279.03 98.5678 279.03 101.457C279.03 104.347 281.515 106.69 284.58 106.69Z" fill="#2F2E41"/>
<path d="M279.459 98.6448C279.46 97.8708 279.642 97.1067 279.994 96.4074C280.346 95.7081 280.858 95.0912 281.494 94.6012C282.129 94.1111 282.872 93.7601 283.669 93.5735C284.466 93.3869 285.296 93.3693 286.101 93.522C285.391 93.2057 284.618 93.0351 283.833 93.0216C283.047 93.008 282.268 93.1518 281.546 93.4435C280.824 93.7352 280.176 94.168 279.645 94.7134C279.114 95.2588 278.711 95.9044 278.464 96.6073C278.218 97.3103 278.132 98.0546 278.213 98.7911C278.294 99.5275 278.541 100.239 278.935 100.879C279.33 101.52 279.865 102.073 280.504 102.504C281.143 102.935 281.871 103.233 282.641 103.378C281.689 102.955 280.884 102.286 280.32 101.447C279.757 100.609 279.458 99.6372 279.459 98.6448Z" fill="#2F2E41"/>
<path d="M274.698 101.612L267.215 100.313L261.461 103.713C260.046 104.549 258.915 105.75 258.202 107.173C257.49 108.597 257.225 110.183 257.44 111.744L263.203 110.367L264.493 107.316C265.322 108.593 266.479 109.651 267.857 110.395C271.123 112.162 271.88 115.918 272.266 119.968L278.579 116.732L282.601 110.789L274.698 101.612Z" fill="#2F2E41"/>
<path opacity="0.2" d="M267.629 136.81L252.686 151.734L253.021 148.585L267.629 136.81Z" fill="black"/>
</g>
<defs>
<clipPath id="clip0">
<rect width="300" height="250" fill="white"/>
</clipPath>
</defs>
</svg>
