<svg width="300" height="250" viewBox="0 0 300 250" fill="none" xmlns="http://www.w3.org/2000/svg">
<g clip-path="url(#clip0)">
<path d="M145.143 221.034C80.572 215.641 3.56782 160.723 7.48822 104.176C11.4086 47.6285 85.9879 -5.01215 150.559 0.381579C215.13 5.7753 252.3 111.452 248.379 167.999C244.459 224.546 209.714 226.428 145.143 221.034Z" fill="#D8D8D8"/>
<path d="M150.559 230.117C225.001 230.117 285.349 226.059 285.349 221.053C285.349 216.047 225.001 211.988 150.559 211.988C76.1159 211.988 15.7682 216.047 15.7682 221.053C15.7682 226.059 76.1159 230.117 150.559 230.117Z" fill="#3F3D56"/>
<path opacity="0.1" d="M150.559 226.901C213.967 226.901 265.37 224.217 265.37 220.906C265.37 217.596 213.967 214.912 150.559 214.912C87.1499 214.912 35.747 217.596 35.747 220.906C35.747 224.217 87.1499 226.901 150.559 226.901Z" fill="black"/>
<path d="M56.525 250C87.7428 250 113.05 247.578 113.05 244.591C113.05 241.603 87.7428 239.181 56.525 239.181C25.3071 239.181 0 241.603 0 244.591C0 247.578 25.3071 250 56.525 250Z" fill="#3F3D56"/>
<path opacity="0.1" d="M56.525 248.081C83.1157 248.081 104.672 246.479 104.672 244.503C104.672 242.528 83.1157 240.926 56.525 240.926C29.9343 240.926 8.37823 242.528 8.37823 244.503C8.37823 246.479 29.9343 248.081 56.525 248.081Z" fill="black"/>
<path d="M252.584 47.3684H52.2628V219.883H252.584V47.3684Z" fill="#3F3D56"/>
<path d="M150.144 70.9442H100.725C100.646 70.9444 100.568 70.9275 100.495 70.8945C100.422 70.8615 100.356 70.813 100.3 70.7519C100.244 70.6907 100.2 70.6181 100.17 70.5381C100.14 70.4582 100.124 70.3725 100.124 70.2859C100.124 70.1993 100.14 70.1136 100.17 70.0336C100.2 69.9537 100.244 69.881 100.3 69.8199C100.356 69.7587 100.422 69.7103 100.495 69.6773C100.568 69.6443 100.646 69.6274 100.725 69.6276H150.144C150.303 69.6279 150.455 69.6975 150.567 69.8209C150.68 69.9443 150.743 70.1115 150.743 70.2859C150.743 70.4602 150.68 70.6275 150.567 70.7509C150.455 70.8743 150.303 70.9438 150.144 70.9442Z" fill="#D8D8D8"/>
<path d="M204.241 78.1856H126.514C126.355 78.1856 126.203 78.1163 126.09 77.9928C125.978 77.8694 125.914 77.7019 125.914 77.5273C125.914 77.3527 125.978 77.1853 126.09 77.0618C126.203 76.9384 126.355 76.869 126.514 76.869H204.241C204.32 76.869 204.398 76.886 204.471 76.9191C204.543 76.9522 204.61 77.0007 204.665 77.0618C204.721 77.1229 204.765 77.1955 204.795 77.2754C204.825 77.3553 204.841 77.4409 204.841 77.5273C204.841 77.6138 204.825 77.6994 204.795 77.7792C204.765 77.8591 204.721 77.9317 204.665 77.9928C204.61 78.0539 204.543 78.1024 204.471 78.1355C204.398 78.1686 204.32 78.1856 204.241 78.1856Z" fill="#D8D8D8"/>
<path d="M150.384 85.4271H100.965C100.806 85.4271 100.654 85.3577 100.541 85.2342C100.429 85.1108 100.365 84.9434 100.365 84.7688C100.365 84.5942 100.429 84.4267 100.541 84.3033C100.654 84.1798 100.806 84.1104 100.965 84.1104H150.384C150.543 84.1104 150.696 84.1798 150.808 84.3033C150.921 84.4267 150.984 84.5942 150.984 84.7688C150.984 84.9434 150.921 85.1108 150.808 85.2342C150.696 85.3577 150.543 85.4271 150.384 85.4271Z" fill="#D8D8D8"/>
<path d="M204.241 85.5587H154.822C154.663 85.5587 154.511 85.4894 154.398 85.3659C154.286 85.2425 154.222 85.075 154.222 84.9004C154.222 84.7258 154.286 84.5584 154.398 84.4349C154.511 84.3115 154.663 84.2421 154.822 84.2421H204.241C204.4 84.2421 204.553 84.3115 204.665 84.4349C204.778 84.5584 204.841 84.7258 204.841 84.9004C204.841 85.075 204.778 85.2425 204.665 85.3659C204.553 85.4894 204.4 85.5587 204.241 85.5587Z" fill="#D8D8D8"/>
<path d="M150.504 92.6685H101.085C100.926 92.6685 100.773 92.5992 100.661 92.4757C100.549 92.3522 100.485 92.1848 100.485 92.0102C100.485 91.8356 100.549 91.6682 100.661 91.5447C100.773 91.4212 100.926 91.3519 101.085 91.3519H150.504C150.663 91.3519 150.816 91.4212 150.928 91.5447C151.041 91.6682 151.104 91.8356 151.104 92.0102C151.104 92.1848 151.041 92.3522 150.928 92.4757C150.816 92.5992 150.663 92.6685 150.504 92.6685Z" fill="#D8D8D8"/>
<path d="M150.624 99.9099H101.205C101.046 99.9099 100.893 99.8406 100.781 99.7171C100.668 99.5937 100.605 99.4262 100.605 99.2516C100.605 99.077 100.668 98.9096 100.781 98.7861C100.893 98.6627 101.046 98.5933 101.205 98.5933H150.624C150.783 98.5933 150.936 98.6627 151.048 98.7861C151.161 98.9096 151.224 99.077 151.224 99.2516C151.224 99.4262 151.161 99.5937 151.048 99.7171C150.936 99.8406 150.783 99.9099 150.624 99.9099Z" fill="#D8D8D8"/>
<path d="M173.054 71.0759H158.9C158.741 71.0759 158.589 71.0065 158.476 70.883C158.364 70.7596 158.301 70.5921 158.301 70.4175C158.301 70.243 158.364 70.0755 158.476 69.9521C158.589 69.8286 158.741 69.7592 158.9 69.7592H173.054C173.213 69.7592 173.366 69.8286 173.479 69.9521C173.591 70.0755 173.654 70.243 173.654 70.4175C173.654 70.5921 173.591 70.7596 173.479 70.883C173.366 71.0065 173.213 71.0759 173.054 71.0759Z" fill="#D8D8D8"/>
<path d="M173.054 92.6685H158.9C158.741 92.6685 158.589 92.5992 158.476 92.4757C158.364 92.3522 158.301 92.1848 158.301 92.0102C158.301 91.8356 158.364 91.6682 158.476 91.5447C158.589 91.4212 158.741 91.3519 158.9 91.3519H173.054C173.213 91.3519 173.366 91.4212 173.479 91.5447C173.591 91.6682 173.654 91.8356 173.654 92.0102C173.654 92.1848 173.591 92.3522 173.479 92.4757C173.366 92.5992 173.213 92.6685 173.054 92.6685Z" fill="#D8D8D8"/>
<path d="M173.054 99.7783H158.9C158.822 99.7784 158.743 99.7616 158.671 99.7286C158.598 99.6956 158.531 99.6471 158.476 99.5859C158.42 99.5248 158.375 99.4522 158.345 99.3722C158.315 99.2922 158.299 99.2065 158.299 99.12C158.299 99.0334 158.315 98.9477 158.345 98.8677C158.375 98.7878 158.42 98.7151 158.476 98.654C158.531 98.5928 158.598 98.5444 158.671 98.5114C158.743 98.4784 158.822 98.4615 158.9 98.4617H173.054C173.133 98.4615 173.211 98.4784 173.284 98.5114C173.357 98.5444 173.423 98.5928 173.479 98.654C173.535 98.7151 173.579 98.7878 173.61 98.8677C173.64 98.9477 173.655 99.0334 173.655 99.12C173.655 99.2065 173.64 99.2922 173.61 99.3722C173.579 99.4522 173.535 99.5248 173.479 99.5859C173.423 99.6471 173.357 99.6956 173.284 99.7286C173.211 99.7616 173.133 99.7784 173.054 99.7783Z" fill="#D8D8D8"/>
<path d="M196.804 99.7783H182.65C182.492 99.7779 182.339 99.7084 182.227 99.585C182.115 99.4615 182.052 99.2943 182.052 99.12C182.052 98.9456 182.115 98.7784 182.227 98.655C182.339 98.5315 182.492 98.462 182.65 98.4617H196.804C196.883 98.4615 196.961 98.4784 197.034 98.5114C197.107 98.5444 197.173 98.5928 197.229 98.654C197.285 98.7151 197.329 98.7878 197.36 98.8677C197.39 98.9477 197.405 99.0334 197.405 99.12C197.405 99.2065 197.39 99.2922 197.36 99.3722C197.329 99.4522 197.285 99.5248 197.229 99.5859C197.173 99.6471 197.107 99.6956 197.034 99.7286C196.961 99.7616 196.883 99.7784 196.804 99.7783Z" fill="#D8D8D8"/>
<path d="M114.759 78.1856H100.605C100.446 78.1856 100.294 78.1163 100.181 77.9928C100.069 77.8694 100.006 77.7019 100.006 77.5273C100.006 77.3527 100.069 77.1853 100.181 77.0618C100.294 76.9384 100.446 76.869 100.605 76.869H114.759C114.918 76.869 115.071 76.9384 115.183 77.0618C115.296 77.1853 115.359 77.3527 115.359 77.5273C115.359 77.7019 115.296 77.8694 115.183 77.9928C115.071 78.1163 114.918 78.1856 114.759 78.1856Z" fill="#D8D8D8"/>
<path d="M150.204 177.591H100.785C100.626 177.591 100.474 177.521 100.361 177.398C100.249 177.275 100.185 177.107 100.185 176.933C100.185 176.758 100.249 176.59 100.361 176.467C100.474 176.344 100.626 176.274 100.785 176.274H150.204C150.363 176.274 150.516 176.344 150.628 176.467C150.741 176.59 150.804 176.758 150.804 176.933C150.804 177.107 150.741 177.275 150.628 177.398C150.516 177.521 150.363 177.591 150.204 177.591Z" fill="#D8D8D8"/>
<path d="M149.964 192.074H100.545C100.386 192.074 100.234 192.004 100.121 191.881C100.009 191.757 99.9456 191.59 99.9456 191.415C99.9456 191.241 100.009 191.073 100.121 190.95C100.234 190.826 100.386 190.757 100.545 190.757H149.964C150.123 190.757 150.276 190.826 150.388 190.95C150.501 191.073 150.564 191.241 150.564 191.415C150.564 191.59 150.501 191.757 150.388 191.881C150.276 192.004 150.123 192.074 149.964 192.074Z" fill="#D8D8D8"/>
<path d="M150.084 199.315H100.665C100.586 199.315 100.508 199.298 100.435 199.265C100.362 199.232 100.296 199.184 100.24 199.123C100.185 199.062 100.14 198.989 100.11 198.909C100.08 198.829 100.064 198.743 100.064 198.657C100.064 198.57 100.08 198.484 100.11 198.405C100.14 198.325 100.185 198.252 100.24 198.191C100.296 198.13 100.362 198.081 100.435 198.048C100.508 198.015 100.586 197.998 100.665 197.998H150.084C150.163 197.998 150.241 198.015 150.314 198.048C150.387 198.081 150.453 198.13 150.509 198.191C150.565 198.252 150.609 198.325 150.639 198.405C150.67 198.484 150.685 198.57 150.685 198.657C150.685 198.743 150.67 198.829 150.639 198.909C150.609 198.989 150.565 199.062 150.509 199.123C150.453 199.184 150.387 199.232 150.314 199.265C150.241 199.298 150.163 199.315 150.084 199.315Z" fill="#D8D8D8"/>
<path d="M171.195 192.205H157.041C156.882 192.205 156.73 192.136 156.617 192.013C156.505 191.889 156.442 191.722 156.442 191.547C156.442 191.372 156.505 191.205 156.617 191.082C156.73 190.958 156.882 190.889 157.041 190.889H171.195C171.354 190.889 171.507 190.958 171.619 191.082C171.732 191.205 171.795 191.372 171.795 191.547C171.795 191.722 171.732 191.889 171.619 192.013C171.507 192.136 171.354 192.205 171.195 192.205Z" fill="#D8D8D8"/>
<path d="M171.195 199.315H157.041C156.882 199.315 156.73 199.246 156.617 199.122C156.505 198.999 156.442 198.831 156.442 198.657C156.442 198.482 156.505 198.315 156.617 198.191C156.73 198.068 156.882 197.998 157.041 197.998H171.195C171.354 197.998 171.507 198.068 171.619 198.191C171.732 198.315 171.795 198.482 171.795 198.657C171.795 198.831 171.732 198.999 171.619 199.122C171.507 199.246 171.354 199.315 171.195 199.315Z" fill="#D8D8D8"/>
<path d="M194.945 192.205H180.791C180.632 192.205 180.48 192.136 180.367 192.013C180.255 191.889 180.191 191.722 180.191 191.547C180.191 191.372 180.255 191.205 180.367 191.082C180.48 190.958 180.632 190.889 180.791 190.889H194.945C195.104 190.889 195.257 190.958 195.369 191.082C195.482 191.205 195.545 191.372 195.545 191.547C195.545 191.722 195.482 191.889 195.369 192.013C195.257 192.136 195.104 192.205 194.945 192.205Z" fill="#D8D8D8"/>
<path d="M204.301 184.832H126.574C126.415 184.832 126.263 184.763 126.15 184.639C126.038 184.516 125.974 184.349 125.974 184.174C125.974 183.999 126.038 183.832 126.15 183.708C126.263 183.585 126.415 183.516 126.574 183.516H204.301C204.46 183.516 204.613 183.585 204.725 183.708C204.838 183.832 204.901 183.999 204.901 184.174C204.901 184.349 204.838 184.516 204.725 184.639C204.613 184.763 204.46 184.832 204.301 184.832Z" fill="#D8D8D8"/>
<path d="M114.819 184.832H100.665C100.506 184.832 100.354 184.763 100.241 184.639C100.129 184.516 100.066 184.349 100.066 184.174C100.066 183.999 100.129 183.832 100.241 183.708C100.354 183.585 100.506 183.516 100.665 183.516H114.819C114.978 183.516 115.131 183.585 115.243 183.708C115.356 183.832 115.419 183.999 115.419 184.174C115.419 184.349 115.356 184.516 115.243 184.639C115.131 184.763 114.978 184.832 114.819 184.832Z" fill="#D8D8D8"/>
<path d="M204.301 206.688H126.574C126.495 206.688 126.417 206.672 126.344 206.639C126.271 206.606 126.205 206.557 126.149 206.496C126.093 206.435 126.049 206.362 126.019 206.282C125.989 206.202 125.973 206.116 125.973 206.03C125.973 205.943 125.989 205.858 126.019 205.778C126.049 205.698 126.093 205.625 126.149 205.564C126.205 205.503 126.271 205.454 126.344 205.421C126.417 205.388 126.495 205.371 126.574 205.372H204.301C204.46 205.372 204.613 205.441 204.725 205.564C204.838 205.688 204.901 205.855 204.901 206.03C204.901 206.205 204.838 206.372 204.725 206.495C204.613 206.619 204.46 206.688 204.301 206.688Z" fill="#D8D8D8"/>
<path d="M114.819 206.688H100.665C100.586 206.688 100.508 206.672 100.435 206.639C100.362 206.606 100.296 206.557 100.24 206.496C100.185 206.435 100.14 206.362 100.11 206.282C100.08 206.202 100.064 206.116 100.064 206.03C100.064 205.943 100.08 205.858 100.11 205.778C100.14 205.698 100.185 205.625 100.24 205.564C100.296 205.503 100.362 205.454 100.435 205.421C100.508 205.388 100.586 205.371 100.665 205.372H114.819C114.898 205.371 114.976 205.388 115.049 205.421C115.122 205.454 115.188 205.503 115.244 205.564C115.3 205.625 115.344 205.698 115.374 205.778C115.405 205.858 115.42 205.943 115.42 206.03C115.42 206.116 115.405 206.202 115.374 206.282C115.344 206.362 115.3 206.435 115.244 206.496C115.188 206.557 115.122 206.606 115.049 206.639C114.976 206.672 114.898 206.688 114.819 206.688Z" fill="#D8D8D8"/>
<path d="M138.269 117.289L119.077 138.092L138.269 158.895L142.587 154.155L128.074 138.224L142.707 122.161L138.269 117.289Z" fill="#0288D1"/>
<path d="M166.577 117.289L185.769 138.092L166.577 158.895L162.259 154.155L176.773 138.224L162.139 122.161L166.577 117.289Z" fill="#0288D1"/>
<path d="M57.5905 54.386C58.9146 54.386 59.988 53.2078 59.988 51.7544C59.988 50.301 58.9146 49.1228 57.5905 49.1228C56.2664 49.1228 55.1931 50.301 55.1931 51.7544C55.1931 53.2078 56.2664 54.386 57.5905 54.386Z" fill="#0288D1"/>
<path d="M63.9837 54.386C65.3078 54.386 66.3812 53.2078 66.3812 51.7544C66.3812 50.301 65.3078 49.1228 63.9837 49.1228C62.6596 49.1228 61.5862 50.301 61.5862 51.7544C61.5862 53.2078 62.6596 54.386 63.9837 54.386Z" fill="#0288D1"/>
<path d="M70.3769 54.386C71.701 54.386 72.7744 53.2078 72.7744 51.7544C72.7744 50.301 71.701 49.1228 70.3769 49.1228C69.0529 49.1228 67.9795 50.301 67.9795 51.7544C67.9795 53.2078 69.0529 54.386 70.3769 54.386Z" fill="#0288D1"/>
<path opacity="0.1" d="M252.584 56.1404H52.2628V57.0175H252.584V56.1404Z" fill="black"/>
<path d="M300 177.618C300 196.265 289.901 202.775 277.444 202.775C264.986 202.775 254.887 196.265 254.887 177.618C254.887 158.971 277.444 135.25 277.444 135.25C277.444 135.25 300 158.971 300 177.618Z" fill="#D8D8D8"/>
<path d="M276.622 199.923L276.853 184.317L286.467 165.011L276.889 181.869L276.993 174.852L283.619 160.885L277.021 172.996L277.207 160.375L284.302 149.255L277.237 158.391L277.353 135.25L276.62 165.885L276.68 164.621L269.466 152.501L276.564 167.047L275.892 181.141L275.872 180.767L267.556 168.012L275.847 182.089L275.763 183.851L275.748 183.878L275.755 184.023L274.05 219.782H276.328L276.601 201.311L284.872 187.269L276.622 199.923Z" fill="#3F3D56"/>
<path d="M32.6644 219.617C31.9724 220.04 31.2423 220.383 30.4859 220.642C29.133 221.047 27.687 220.898 26.3204 221.245C25.7609 221.386 25.152 221.683 24.9741 222.282C24.8436 222.722 24.9855 223.197 25.1215 223.634C26.6315 228.494 27.5417 233.653 29.9498 238.055C30.9618 239.904 32.2179 241.578 33.6772 243.022C34.2246 243.564 34.845 244.094 35.578 244.179C35.9157 244.218 36.2569 244.159 36.5671 244.007C36.8773 243.855 37.1455 243.616 37.3447 243.314C37.5438 243.012 37.6669 242.658 37.7014 242.287C37.736 241.916 37.6807 241.542 37.5413 241.202C37.3254 240.675 36.9241 240.267 36.6652 239.764C36.3845 239.124 36.2199 238.43 36.1805 237.72C35.9426 235.642 35.7134 233.469 36.3695 231.502C36.8096 230.183 37.6167 229.058 38.2892 227.863C38.9616 226.667 39.5203 225.298 39.3707 223.903C39.2686 222.95 38.8454 222.079 38.3984 221.255C37.9505 220.43 37.0652 218.212 36.1653 217.936C35.2312 217.65 33.4791 219.159 32.6644 219.617Z" fill="#2F2E41"/>
<path d="M57.2876 236.404C57.3017 236.874 57.2419 237.343 57.111 237.791C56.8292 238.608 56.1304 239.167 55.7694 239.945C55.2672 241.027 55.4948 242.335 55.8275 243.493C56.0361 244.219 56.3096 244.975 56.8697 245.424C57.3487 245.75 57.8934 245.941 58.4557 245.981C63.2603 246.711 68.1409 246.293 72.9892 246.446C73.8729 246.473 74.8085 246.507 75.5799 246.033C76.3513 245.559 76.8282 244.368 76.3035 243.587C75.8324 242.885 74.9009 242.892 74.108 242.85C72.0431 242.735 70.0767 241.846 68.5371 240.331C68.2334 240.047 67.9701 239.714 67.7557 239.344C67.5908 239.016 67.454 238.672 67.347 238.316C66.6673 236.295 65.8587 234.329 64.9272 232.433C64.6665 231.902 64.3713 231.35 63.8867 231.066C63.532 230.889 63.1471 230.796 62.7575 230.795C61.5491 230.709 58.4199 230.258 57.4855 231.289C56.6221 232.242 57.3068 235.193 57.2876 236.404Z" fill="#2F2E41"/>
<path d="M64.7235 118.624C68.9863 118.624 72.442 114.831 72.442 110.152C72.442 105.473 68.9863 101.68 64.7235 101.68C60.4607 101.68 57.0051 105.473 57.0051 110.152C57.0051 114.831 60.4607 118.624 64.7235 118.624Z" fill="#FBBEBE"/>
<path d="M57.7536 117.148C57.2945 118.497 56.5158 119.764 55.3827 120.49L66.0579 122.88C65.6707 121.17 65.6197 119.389 65.9083 117.655C66.0142 117.236 66.036 116.796 65.9721 116.366C65.7714 115.516 64.8995 115.107 64.1195 114.912C62.1711 114.424 60.4481 114.163 58.6376 113.218C58.0841 114.258 58.1616 115.949 57.7536 117.148Z" fill="#FBBEBE"/>
<path d="M55.2935 117.318C56.4419 116.747 57.6931 116.47 58.9532 116.506C60.2133 116.542 61.4495 116.891 62.5693 117.526C63.9379 118.318 65.0711 119.513 66.1845 120.692C67.2108 121.779 68.3056 123.023 68.3784 124.586C68.4137 125.344 68.1984 126.084 68.0896 126.833C67.8942 128.382 68.1426 129.959 68.8003 131.346C69.458 132.732 70.4925 133.86 71.7604 134.573C72.6085 136.123 72.7835 138.002 72.7965 139.811C72.8458 146.663 70.8761 153.601 72.2823 160.277C72.6124 161.845 73.1245 163.363 73.4097 164.941C73.7791 166.986 73.7609 169.087 73.9541 171.161C74.1638 173.406 74.6211 175.614 75.3162 177.738C74.8517 178.549 73.8848 178.86 73.0141 178.795C72.1433 178.729 71.3291 178.314 70.5522 177.878C66.7899 175.765 63.344 172.978 59.4474 171.182C56.8694 169.994 54.1231 169.254 51.6221 167.881C49.1212 166.509 46.7953 164.331 46.0306 161.379C45.7 160.103 45.6796 158.758 45.6616 157.431C45.5856 151.842 45.5149 146.192 46.6232 140.737C47.6006 135.926 49.4846 131.323 49.8956 126.415C50.0294 124.817 50.0322 123.107 50.8455 121.773C51.995 119.889 54.477 119.401 55.2935 117.318Z" fill="#2F2E41"/>
<path d="M60.3337 110.272C60.7885 109.621 61.6657 109.532 62.3923 109.724C63.1189 109.917 63.7888 110.328 64.5227 110.484C64.6895 110.536 64.8643 110.549 65.036 110.523C65.2077 110.496 65.3725 110.431 65.5198 110.331C65.7763 110.053 65.9297 109.681 65.9501 109.287C66.2072 107.608 66.2672 105.9 66.1289 104.205C66.0906 103.967 66.1052 103.722 66.1711 103.492C66.3528 103.011 66.9071 102.897 67.3598 102.743C68.1066 102.466 68.7481 101.923 69.1829 101.202C69.6177 100.48 69.821 99.6193 69.7607 98.7565C69.7493 98.3427 69.591 97.9501 69.3194 97.6628C69.0063 97.3828 68.5681 97.3656 68.1643 97.362C66.0895 97.3437 64.0147 97.3443 61.9398 97.3637C61.1719 97.3708 60.3654 97.3916 59.6997 97.8118C59.2075 98.1225 58.8415 98.6227 58.3996 99.014C57.2472 100.035 55.6884 100.243 54.2863 100.766C53.6019 100.98 52.9804 101.386 52.4835 101.946C52.0173 102.53 51.7931 103.4 52.0859 104.107C52.2363 104.402 52.4042 104.686 52.5886 104.956C53.4156 106.408 52.865 108.291 52.9885 109.997C53.1427 112.128 56.016 115.585 57.9642 116.09C61.1096 116.904 59.2925 111.671 60.3337 110.272Z" fill="#2F2E41"/>
<path d="M55.9764 203.708C56.1749 205.264 56.4295 206.826 56.3614 208.395C56.2664 210.586 55.5465 212.698 55.4134 214.886C55.314 216.521 55.5439 218.173 55.3371 219.796C55.2047 220.835 54.896 221.837 54.7049 222.864C54.4023 224.54 54.4108 226.264 54.73 227.936C55.0492 229.607 55.6725 231.191 56.5624 232.591C56.6932 232.831 56.8791 233.029 57.1014 233.165C57.3147 233.251 57.543 233.284 57.7695 233.262C60.016 233.211 62.2565 232.988 64.4745 232.593C64.6368 232.585 64.7906 232.511 64.905 232.384C64.955 232.3 64.987 232.205 64.9985 232.105C65.4097 229.785 64.4719 227.458 64.2334 225.109C63.9788 222.6 64.5272 220.086 65.0715 217.634C65.3183 216.424 65.6267 215.23 65.9952 214.058C66.2583 213.27 66.576 212.502 66.8041 211.701C67.127 210.441 67.3237 209.147 67.3906 207.84C67.549 205.779 67.6329 203.713 67.6423 201.642C67.6961 199.679 67.5473 197.717 67.1988 195.791C66.6985 193.353 65.674 191.089 64.6585 188.852C64.1156 188.995 63.6058 189.261 63.162 189.633C61.8534 190.563 60.4871 191.392 59.073 192.113C58.123 192.597 56.2702 192.941 55.6672 193.951C55.0725 194.946 55.4562 196.977 55.5016 198.075C55.5796 199.96 55.7379 201.837 55.9764 203.708Z" fill="#2F2E41"/>
<path opacity="0.1" d="M55.9764 203.708C56.1749 205.264 56.4295 206.826 56.3614 208.395C56.2664 210.586 55.5465 212.698 55.4134 214.886C55.314 216.521 55.5439 218.173 55.3371 219.796C55.2047 220.835 54.896 221.837 54.7049 222.864C54.4023 224.54 54.4108 226.264 54.73 227.936C55.0492 229.607 55.6725 231.191 56.5624 232.591C56.6932 232.831 56.8791 233.029 57.1014 233.165C57.3147 233.251 57.543 233.284 57.7695 233.262C60.016 233.211 62.2565 232.988 64.4745 232.593C64.6368 232.585 64.7906 232.511 64.905 232.384C64.955 232.3 64.987 232.205 64.9985 232.105C65.4097 229.785 64.4719 227.458 64.2334 225.109C63.9788 222.6 64.5272 220.086 65.0715 217.634C65.3183 216.424 65.6267 215.23 65.9952 214.058C66.2583 213.27 66.576 212.502 66.8041 211.701C67.127 210.441 67.3237 209.147 67.3906 207.84C67.549 205.779 67.6329 203.713 67.6423 201.642C67.6961 199.679 67.5473 197.717 67.1988 195.791C66.6985 193.353 65.674 191.089 64.6585 188.852C64.1156 188.995 63.6058 189.261 63.162 189.633C61.8534 190.563 60.4871 191.392 59.073 192.113C58.123 192.597 56.2702 192.941 55.6672 193.951C55.0725 194.946 55.4562 196.977 55.5016 198.075C55.5796 199.96 55.7379 201.837 55.9764 203.708Z" fill="black"/>
<path d="M45.5413 170.473C44.5163 173.502 46.023 176.775 47.3319 179.67C50.5568 186.8 52.7962 194.409 55.0236 201.985C55.1905 202.552 55.3572 203.171 55.1712 203.731C55.0106 204.13 54.7498 204.469 54.4195 204.71C52.8837 205.991 50.9281 206.447 49.0986 207.116C47.3305 207.764 45.6371 208.636 44.0526 209.713C42.7268 210.615 41.4849 211.656 40.2454 212.695L36.2998 216.002C36.0443 216.192 35.8211 216.429 35.6402 216.703C35.2597 217.359 35.4156 218.214 35.605 218.963C36.1068 220.946 36.7528 222.881 37.5369 224.75C37.6659 225.16 37.9115 225.513 38.2375 225.758C38.8533 226.121 39.6066 225.639 40.0769 225.072C40.5472 224.504 40.9539 223.797 41.6169 223.553C42.279 223.31 43.0078 223.605 43.6994 223.498C44.8178 223.326 45.5604 222.195 46.3666 221.327C49.6605 217.779 55.16 218.037 58.7834 214.9C59.3072 214.386 59.8617 213.911 60.4433 213.477C61.0558 213.08 61.7505 212.862 62.386 212.51C64.3191 211.442 65.5343 209.233 66.1853 206.967C66.8363 204.702 67.022 202.31 67.4898 199.991C67.7316 198.791 68.05 197.605 68.1575 196.383C68.2267 195.246 68.2042 194.104 68.0901 192.972L66.7827 175.219C66.6762 173.773 66.5696 172.326 66.3629 170.894C62.4799 171.046 58.5997 171.218 54.7145 171.268C51.623 171.308 48.4747 171.545 45.5413 170.473Z" fill="#2F2E41"/>
<path d="M44.1139 174.626C44.6406 175.556 45.9226 175.537 46.8055 175.027C47.6883 174.517 48.3742 173.661 49.2591 173.155C50.4482 172.476 51.8553 172.502 53.1952 172.543C55.3166 172.609 57.464 172.679 59.505 173.317C61.6161 173.977 63.6712 175.248 65.854 174.994C66.2338 174.95 66.6492 174.831 66.8559 174.478C66.977 174.223 67.034 173.936 67.021 173.649L67.0923 171.556C67.1361 171.194 67.0833 170.825 66.9405 170.496C66.7573 170.221 66.5062 170.01 66.217 169.888C63.1101 168.237 59.5669 167.929 56.1171 167.799C54.3634 167.734 52.6091 167.706 50.854 167.718C49.3646 167.728 47.5766 167.492 46.1287 167.928C44.1854 168.515 43.128 172.886 44.1139 174.626Z" fill="#2F2E41"/>
<path d="M63.623 119.803C59.552 119.763 55.8629 116.814 51.7924 116.742C51.3006 116.705 50.8078 116.798 50.3559 117.014C49.7886 117.328 49.4157 117.934 48.9848 118.446C47.7812 119.877 46.0383 120.641 44.8018 122.037C43.6424 123.347 42.9976 125.297 43.4553 127.053C43.9131 128.808 45.6406 130.155 47.259 129.733C47.9111 127.416 49.2568 125.409 51.0781 124.037C52.0258 123.37 53.0245 122.794 54.0631 122.317C55.8926 121.407 57.9384 120.48 59.8484 121.162C60.5528 121.454 61.2169 121.851 61.822 122.343L65.0064 124.691C64.6353 123.085 64.3017 121.283 63.623 119.803Z" fill="#0288D1"/>
<path d="M46.7901 128.179C46.2495 128.92 47.0283 129.992 46.9091 130.932C46.8299 131.556 46.3618 132.033 46.1669 132.626C45.965 133.24 46.0721 133.92 45.9955 134.568C45.9187 135.039 45.805 135.501 45.6559 135.951C45.3129 137.293 45.0735 138.665 44.9403 140.052L44.2277 145.893C44.1041 146.772 44.0288 147.658 44.0023 148.547C44.0383 149.211 43.9978 149.878 43.8819 150.531C43.7241 151.17 43.3748 151.728 43.1397 152.337C42.9047 152.946 42.7957 153.683 43.1133 154.245C42.05 155.217 41.7338 157.126 42.4773 158.407C42.6188 158.607 42.7295 158.83 42.805 159.069C42.8461 159.403 42.7959 159.743 42.6607 160.046L41.9402 162.153C41.7558 162.693 41.6974 163.514 42.2102 163.637C41.7855 164.121 41.4546 164.695 41.2375 165.323C41.1322 165.639 41.1008 165.978 41.146 166.31C41.1913 166.643 41.3118 166.957 41.4966 167.225C41.6756 167.398 41.828 167.601 41.9479 167.827C42.0184 168.141 42.0002 168.472 41.8958 168.775C41.788 169.235 41.7673 169.715 41.8347 170.184C41.9022 170.653 42.0565 171.103 42.2881 171.504C42.5281 171.9 42.868 172.211 43.2663 172.398C43.6646 172.585 44.1039 172.641 44.5307 172.559C45.9719 172.202 47.267 171.639 48.7202 171.932C51.8492 172.562 54.9882 173.195 58.0187 174.257C61.4774 175.469 64.8264 177.246 68.4412 177.62C68.679 177.673 68.9264 177.631 69.1382 177.501C69.3224 177.309 69.4369 177.05 69.4605 176.773C69.833 174.857 70.2054 172.94 70.5778 171.023C71.028 168.899 71.3708 166.748 71.6047 164.582C71.7319 163.184 71.7682 161.779 71.8043 160.374L72.0923 149.195C72.2272 147.548 72.027 145.888 71.5062 144.336L69.85 138.532C68.9048 135.22 66.7366 132.283 65.9646 128.918C65.476 126.788 65.115 124.502 63.8048 122.841C61.9368 120.475 58.7049 120.106 55.8762 120.513C54.5983 120.697 53.3094 121.014 52.204 121.742C50.9258 122.583 49.9842 123.908 49.0733 125.203C48.3225 126.27 47.5583 127.128 46.7901 128.179Z" fill="#0288D1"/>
<path d="M53.3951 161.059C53.6282 162.163 54.1176 163.18 54.4172 164.263C54.9192 166.079 54.8766 168.034 55.3776 169.85C55.5879 170.612 55.8925 171.343 56.0434 172.122C56.3953 173.938 55.8815 175.817 55.2434 177.536C54.6052 179.256 53.8279 180.951 53.6208 182.794C53.4748 184.091 53.6845 185.557 54.5958 186.399C55.5419 187.273 56.9168 187.214 58.1491 187.098C58.5914 187.084 59.0281 186.984 59.4387 186.803C60.381 186.314 60.778 185.09 60.9982 183.971C61.7365 180.223 61.5256 176.338 61.311 172.51L60.75 162.5C60.642 160.573 60.5263 158.606 59.9853 156.756C59.7885 156.082 59.4454 154.722 58.8853 154.292C58.3305 153.867 56.7463 153.848 56.0594 153.812C52.8367 153.646 52.8728 158.584 53.3951 161.059Z" fill="#FBBEBE"/>
<path d="M56.9657 124.1C56.3076 123.722 55.4784 123.885 54.8422 124.306C54.2279 124.768 53.6899 125.341 53.2513 126.002C51.8291 127.907 50.3236 130.094 50.5345 132.546C50.6136 133.466 50.9344 134.336 51.1518 135.228C52.1053 139.14 51.0509 143.278 51.1719 147.326C51.2418 149.664 51.7055 151.965 52.1672 154.249C52.2615 154.716 52.4124 155.255 52.8233 155.412C53.1319 155.53 53.4654 155.379 53.7708 155.251C54.909 154.789 56.1316 154.635 57.3354 154.802C58.5393 154.968 59.6888 155.451 60.687 156.208C61.4502 155.761 61.1642 154.347 60.9931 153.417C60.4847 150.651 61.1748 147.798 62.0129 145.132C62.851 142.465 63.8538 139.801 63.9927 136.984C64.15 133.792 63.1859 130.677 62.2346 127.656C62.0269 126.996 61.8 126.305 61.3186 125.849C60.9064 125.513 60.4341 125.276 59.9326 125.154C58.9222 124.826 57.8991 124.637 56.9657 124.1Z" fill="#2F2E41"/>
</g>
<defs>
<clipPath id="clip0">
<rect width="300" height="250" fill="white"/>
</clipPath>
</defs>
</svg>
